<svg width="498" height="44" viewBox="0 0 498 44" fill="none" xmlns="http://www.w3.org/2000/svg">
<circle cx="15.4999" cy="22" r="15.4999" fill="#A89C94" fill-opacity="0.7"/>
<circle cx="32.5618" cy="21.9999" r="15.4999" fill="#C6BFB9" fill-opacity="0.6"/>
<circle cx="49.6238" cy="21.9999" r="15.4999" fill="#E0DBD7" fill-opacity="0.5"/>
<path d="M100.544 9.38C100.544 10.1 99.9037 10.7 99.1037 10.7C98.2637 10.7 97.6637 10.1 97.6637 9.38C97.6637 8.66 98.2637 8.1 99.1037 8.1C99.9037 8.1 100.544 8.66 100.544 9.38ZM101.504 9.38C101.504 8.66 102.144 8.1 102.944 8.1C103.784 8.1 104.384 8.66 104.384 9.38C104.384 10.1 103.784 10.7 102.944 10.7C102.144 10.7 101.504 10.1 101.504 9.38ZM96.8637 10.46C96.8637 11.22 96.2237 11.82 95.3837 11.82C94.5437 11.82 93.9437 11.22 93.9437 10.46C93.9437 9.74 94.5437 9.18 95.3837 9.18C96.2237 9.18 96.8637 9.74 96.8637 10.46ZM105.184 10.54C105.184 9.82 105.824 9.26 106.664 9.26C107.504 9.26 108.104 9.82 108.104 10.54C108.104 11.3 107.504 11.9 106.664 11.9C105.824 11.9 105.184 11.3 105.184 10.54ZM93.8237 12.74C93.8237 13.5 93.1437 14.1 92.3037 14.1C91.4637 14.1 90.8237 13.5 90.8237 12.74C90.8237 11.98 91.4637 11.38 92.3037 11.38C93.1437 11.38 93.8237 11.98 93.8237 12.74ZM108.224 12.9C108.224 12.14 108.904 11.54 109.744 11.54C110.584 11.54 111.224 12.14 111.224 12.9C111.224 13.66 110.584 14.26 109.744 14.26C108.904 14.26 108.224 13.66 108.224 12.9ZM91.5837 15.7C91.5837 16.42 90.8637 17.06 90.0637 17.06C89.2637 17.06 88.5837 16.46 88.5837 15.7C88.5837 14.94 89.2237 14.34 90.0637 14.34C90.9037 14.34 91.5837 14.94 91.5837 15.7ZM90.3837 19.1C90.3837 19.82 89.7037 20.46 88.8637 20.46C88.0237 20.46 87.3837 19.82 87.3837 19.1C87.3837 18.34 88.0237 17.74 88.8637 17.74C89.7037 17.74 90.3837 18.34 90.3837 19.1ZM89.9837 22.62C89.9837 23.38 89.3037 23.98 88.4637 23.98C87.6237 23.98 86.9837 23.38 86.9837 22.62C86.9837 21.86 87.6237 21.26 88.4637 21.26C89.3037 21.26 89.9837 21.86 89.9837 22.62ZM90.3837 26.1C90.3837 26.86 89.7037 27.46 88.8637 27.46C88.0237 27.46 87.3837 26.86 87.3837 26.1C87.3837 25.42 88.0237 24.78 88.8637 24.78C89.7037 24.78 90.3837 25.42 90.3837 26.1ZM91.5837 29.5C91.5837 30.22 90.9037 30.82 90.0637 30.82C89.2237 30.82 88.5837 30.22 88.5837 29.5C88.5837 28.74 89.2637 28.14 90.0637 28.14C90.8637 28.14 91.5837 28.78 91.5837 29.5ZM108.224 32.22C108.224 31.46 108.904 30.86 109.744 30.86C110.584 30.86 111.224 31.46 111.224 32.22C111.224 32.98 110.584 33.58 109.744 33.58C108.904 33.58 108.224 32.98 108.224 32.22ZM93.8237 32.38C93.8237 33.14 93.1437 33.74 92.3037 33.74C91.4637 33.74 90.8237 33.14 90.8237 32.38C90.8237 31.62 91.4637 31.02 92.3037 31.02C93.1437 31.02 93.8237 31.62 93.8237 32.38ZM105.184 34.54C105.184 33.78 105.824 33.22 106.664 33.22C107.504 33.22 108.104 33.78 108.104 34.54C108.104 35.26 107.504 35.82 106.664 35.82C105.824 35.82 105.184 35.26 105.184 34.54ZM96.8637 34.62C96.8637 35.34 96.2237 35.9 95.3837 35.9C94.5437 35.9 93.9437 35.34 93.9437 34.62C93.9437 33.86 94.5437 33.3 95.3837 33.3C96.2237 33.3 96.8637 33.86 96.8637 34.62ZM100.544 35.7C100.544 36.42 99.9037 36.98 99.1037 36.98C98.2637 36.98 97.6637 36.42 97.6637 35.7C97.6637 34.98 98.2637 34.38 99.1037 34.38C99.9037 34.38 100.544 34.98 100.544 35.7ZM101.504 35.7C101.504 34.98 102.144 34.38 102.944 34.38C103.784 34.38 104.384 34.98 104.384 35.7C104.384 36.42 103.784 36.98 102.944 36.98C102.144 36.98 101.504 36.42 101.504 35.7ZM128.473 9.38C128.473 10.1 127.833 10.7 127.033 10.7C126.193 10.7 125.593 10.1 125.593 9.38C125.593 8.66 126.193 8.1 127.033 8.1C127.833 8.1 128.473 8.66 128.473 9.38ZM129.433 9.38C129.433 8.66 130.073 8.1 130.873 8.1C131.713 8.1 132.313 8.66 132.313 9.38C132.313 10.1 131.713 10.7 130.873 10.7C130.073 10.7 129.433 10.1 129.433 9.38ZM124.793 10.46C124.793 11.22 124.153 11.82 123.313 11.82C122.473 11.82 121.873 11.22 121.873 10.46C121.873 9.74 122.473 9.18 123.313 9.18C124.153 9.18 124.793 9.74 124.793 10.46ZM133.113 10.46C133.113 9.74 133.753 9.18 134.593 9.18C135.433 9.18 136.033 9.74 136.033 10.46C136.033 11.22 135.433 11.82 134.593 11.82C133.753 11.82 133.113 11.22 133.113 10.46ZM121.753 12.74C121.753 13.5 121.073 14.1 120.233 14.1C119.393 14.1 118.753 13.5 118.753 12.74C118.753 11.98 119.393 11.38 120.233 11.38C121.073 11.38 121.753 11.98 121.753 12.74ZM136.153 12.74C136.153 11.98 136.833 11.38 137.673 11.38C138.513 11.38 139.153 11.98 139.153 12.74C139.153 13.5 138.513 14.1 137.673 14.1C136.833 14.1 136.153 13.5 136.153 12.74ZM119.513 15.7C119.513 16.42 118.793 17.06 117.993 17.06C117.193 17.06 116.513 16.46 116.513 15.7C116.513 14.94 117.153 14.34 117.993 14.34C118.833 14.34 119.513 14.94 119.513 15.7ZM138.393 15.7C138.393 14.94 139.073 14.34 139.913 14.34C140.753 14.34 141.393 14.94 141.393 15.7C141.393 16.46 140.713 17.06 139.913 17.06C139.113 17.06 138.393 16.46 138.393 15.7ZM118.313 19.1C118.313 19.82 117.633 20.46 116.793 20.46C115.953 20.46 115.313 19.82 115.313 19.1C115.313 18.34 115.953 17.74 116.793 17.74C117.633 17.74 118.313 18.34 118.313 19.1ZM139.593 19.1C139.593 18.34 140.273 17.74 141.113 17.74C141.953 17.74 142.593 18.34 142.593 19.1C142.593 19.82 141.953 20.46 141.113 20.46C140.273 20.46 139.593 19.82 139.593 19.1ZM117.913 22.62C117.913 23.38 117.233 23.98 116.393 23.98C115.553 23.98 114.913 23.38 114.913 22.62C114.913 21.86 115.553 21.26 116.393 21.26C117.233 21.26 117.913 21.86 117.913 22.62ZM139.993 22.62C139.993 21.86 140.673 21.26 141.513 21.26C142.353 21.26 142.993 21.86 142.993 22.62C142.993 23.38 142.353 23.98 141.513 23.98C140.673 23.98 139.993 23.38 139.993 22.62ZM118.313 26.1C118.313 26.86 117.633 27.46 116.793 27.46C115.953 27.46 115.313 26.86 115.313 26.1C115.313 25.42 115.953 24.78 116.793 24.78C117.633 24.78 118.313 25.42 118.313 26.1ZM139.593 26.1C139.593 25.42 140.273 24.78 141.113 24.78C141.953 24.78 142.593 25.42 142.593 26.1C142.593 26.86 141.953 27.46 141.113 27.46C140.273 27.46 139.593 26.86 139.593 26.1ZM119.513 29.5C119.513 30.22 118.833 30.82 117.993 30.82C117.153 30.82 116.513 30.22 116.513 29.5C116.513 28.74 117.193 28.14 117.993 28.14C118.793 28.14 119.513 28.78 119.513 29.5ZM138.393 29.5C138.393 28.74 139.113 28.14 139.913 28.14C140.713 28.14 141.393 28.74 141.393 29.5C141.393 30.22 140.753 30.82 139.913 30.82C139.073 30.82 138.393 30.22 138.393 29.5ZM121.753 32.38C121.753 33.14 121.073 33.74 120.233 33.74C119.393 33.74 118.753 33.14 118.753 32.38C118.753 31.62 119.393 31.02 120.233 31.02C121.073 31.02 121.753 31.62 121.753 32.38ZM136.153 32.38C136.153 31.62 136.833 31.02 137.673 31.02C138.513 31.02 139.153 31.62 139.153 32.38C139.153 33.14 138.513 33.74 137.673 33.74C136.833 33.74 136.153 33.14 136.153 32.38ZM124.793 34.62C124.793 35.34 124.153 35.9 123.313 35.9C122.473 35.9 121.873 35.34 121.873 34.62C121.873 33.86 122.473 33.3 123.313 33.3C124.153 33.3 124.793 33.86 124.793 34.62ZM133.113 34.62C133.113 33.86 133.753 33.3 134.593 33.3C135.433 33.3 136.033 33.86 136.033 34.62C136.033 35.34 135.433 35.9 134.593 35.9C133.753 35.9 133.113 35.34 133.113 34.62ZM128.473 35.7C128.473 36.42 127.833 36.98 127.033 36.98C126.193 36.98 125.593 36.42 125.593 35.7C125.593 34.98 126.193 34.38 127.033 34.38C127.833 34.38 128.473 34.98 128.473 35.7ZM129.433 35.7C129.433 34.98 130.073 34.38 130.873 34.38C131.713 34.38 132.313 34.98 132.313 35.7C132.313 36.42 131.713 36.98 130.873 36.98C130.073 36.98 129.433 36.42 129.433 35.7ZM151.47 9.78C151.47 10.54 150.79 11.14 149.95 11.14C149.11 11.14 148.47 10.54 148.47 9.78C148.47 9.02 149.11 8.42 149.95 8.42C150.79 8.42 151.47 9.02 151.47 9.78ZM172.79 9.74C172.79 10.54 172.11 11.14 171.27 11.14C170.43 11.14 169.79 10.54 169.79 9.74C169.79 9.02 170.43 8.42 171.27 8.42C172.11 8.42 172.79 9.02 172.79 9.74ZM151.47 13.38C151.47 14.18 150.79 14.78 149.95 14.78C149.11 14.78 148.47 14.18 148.47 13.38C148.47 12.62 149.11 12.02 149.95 12.02C150.79 12.02 151.47 12.62 151.47 13.38ZM172.79 13.42C172.79 14.18 172.07 14.78 171.27 14.78C170.43 14.78 169.79 14.18 169.79 13.42C169.79 12.62 170.43 12.02 171.27 12.02C172.11 12.02 172.79 12.62 172.79 13.42ZM151.47 17.02C151.47 17.78 150.79 18.38 149.95 18.38C149.11 18.38 148.47 17.78 148.47 17.02C148.47 16.26 149.11 15.66 149.95 15.66C150.79 15.66 151.47 16.26 151.47 17.02ZM172.79 17.02C172.79 17.78 172.11 18.38 171.27 18.38C170.43 18.38 169.79 17.78 169.79 17.02C169.79 16.26 170.43 15.66 171.27 15.66C172.11 15.66 172.79 16.26 172.79 17.02ZM151.47 20.66C151.47 21.42 150.79 22.02 149.95 22.02C149.11 22.02 148.47 21.42 148.47 20.66C148.47 19.86 149.11 19.26 149.95 19.26C150.79 19.26 151.47 19.86 151.47 20.66ZM172.79 20.66C172.79 21.42 172.11 21.98 171.27 21.98C170.43 21.98 169.79 21.42 169.79 20.66C169.79 19.9 170.43 19.26 171.27 19.26C172.11 19.26 172.79 19.9 172.79 20.66ZM154.69 22.48C154.69 23.2 154.07 23.74 153.27 23.74C152.47 23.74 151.87 23.2 151.87 22.48C151.87 21.76 152.47 21.18 153.27 21.18C154.07 21.18 154.69 21.76 154.69 22.48ZM158.35 22.48C158.35 23.2 157.71 23.74 156.91 23.74C156.13 23.74 155.53 23.2 155.53 22.48C155.53 21.76 156.13 21.18 156.91 21.18C157.71 21.18 158.35 21.76 158.35 22.48ZM162.03 22.48C162.03 23.2 161.41 23.74 160.61 23.74C159.81 23.74 159.23 23.2 159.23 22.48C159.23 21.76 159.81 21.18 160.61 21.18C161.41 21.18 162.03 21.76 162.03 22.48ZM165.65 22.48C165.65 23.2 165.01 23.74 164.27 23.74C163.47 23.74 162.87 23.2 162.87 22.48C162.87 21.76 163.47 21.18 164.27 21.18C165.01 21.18 165.65 21.76 165.65 22.48ZM169.33 22.48C169.33 23.2 168.71 23.74 167.91 23.74C167.07 23.74 166.53 23.2 166.53 22.48C166.53 21.76 166.99 21.18 167.91 21.18C168.71 21.18 169.33 21.76 169.33 22.48ZM172.79 24.26C172.79 25.02 172.11 25.66 171.27 25.66C170.43 25.66 169.79 25.02 169.79 24.26C169.79 23.5 170.43 22.86 171.27 22.86C172.11 22.86 172.79 23.5 172.79 24.26ZM151.47 24.26C151.47 25.02 150.79 25.62 149.95 25.62C149.11 25.62 148.47 25.02 148.47 24.26C148.47 23.5 149.11 22.9 149.95 22.9C150.79 22.9 151.47 23.5 151.47 24.26ZM151.47 27.9C151.47 28.66 150.79 29.26 149.95 29.26C149.11 29.26 148.47 28.66 148.47 27.9C148.47 27.14 149.11 26.5 149.95 26.5C150.79 26.5 151.47 27.14 151.47 27.9ZM172.79 27.86C172.79 28.62 172.11 29.26 171.27 29.26C170.43 29.26 169.79 28.62 169.79 27.86C169.79 27.14 170.43 26.54 171.27 26.54C172.11 26.54 172.79 27.14 172.79 27.86ZM151.47 31.5C151.47 32.26 150.79 32.86 149.95 32.86C149.11 32.86 148.47 32.26 148.47 31.5C148.47 30.74 149.15 30.14 149.95 30.14C150.79 30.14 151.47 30.74 151.47 31.5ZM172.79 31.5C172.79 32.26 172.11 32.9 171.27 32.9C170.43 32.9 169.79 32.26 169.79 31.5C169.79 30.74 170.43 30.14 171.27 30.14C172.11 30.14 172.79 30.74 172.79 31.5ZM151.47 35.14C151.47 35.9 150.79 36.5 149.95 36.5C149.11 36.5 148.47 35.9 148.47 35.14C148.47 34.38 149.11 33.78 149.95 33.78C150.79 33.78 151.47 34.38 151.47 35.14ZM172.79 35.1C172.79 35.9 172.11 36.5 171.27 36.5C170.43 36.5 169.79 35.9 169.79 35.1C169.79 34.34 170.43 33.78 171.27 33.78C172.11 33.78 172.79 34.34 172.79 35.1ZM191.833 9.38C191.833 10.1 191.193 10.7 190.393 10.7C189.553 10.7 188.953 10.1 188.953 9.38C188.953 8.66 189.553 8.1 190.393 8.1C191.193 8.1 191.833 8.66 191.833 9.38ZM192.793 9.38C192.793 8.66 193.433 8.1 194.233 8.1C195.073 8.1 195.673 8.66 195.673 9.38C195.673 10.1 195.073 10.7 194.233 10.7C193.433 10.7 192.793 10.1 192.793 9.38ZM188.153 10.46C188.153 11.22 187.513 11.82 186.673 11.82C185.833 11.82 185.233 11.22 185.233 10.46C185.233 9.74 185.833 9.18 186.673 9.18C187.513 9.18 188.153 9.74 188.153 10.46ZM196.473 10.46C196.473 9.74 197.113 9.18 197.953 9.18C198.793 9.18 199.393 9.74 199.393 10.46C199.393 11.22 198.793 11.82 197.953 11.82C197.113 11.82 196.473 11.22 196.473 10.46ZM185.113 12.74C185.113 13.5 184.433 14.1 183.593 14.1C182.753 14.1 182.113 13.5 182.113 12.74C182.113 11.98 182.753 11.38 183.593 11.38C184.433 11.38 185.113 11.98 185.113 12.74ZM199.513 12.74C199.513 11.98 200.193 11.38 201.033 11.38C201.873 11.38 202.513 11.98 202.513 12.74C202.513 13.5 201.873 14.1 201.033 14.1C200.193 14.1 199.513 13.5 199.513 12.74ZM182.873 15.7C182.873 16.42 182.153 17.06 181.353 17.06C180.553 17.06 179.873 16.46 179.873 15.7C179.873 14.94 180.513 14.34 181.353 14.34C182.193 14.34 182.873 14.94 182.873 15.7ZM201.753 15.7C201.753 14.94 202.433 14.34 203.273 14.34C204.113 14.34 204.753 14.94 204.753 15.7C204.753 16.46 204.073 17.06 203.273 17.06C202.473 17.06 201.753 16.46 201.753 15.7ZM181.673 19.1C181.673 19.82 180.993 20.46 180.153 20.46C179.313 20.46 178.673 19.82 178.673 19.1C178.673 18.34 179.313 17.74 180.153 17.74C180.993 17.74 181.673 18.34 181.673 19.1ZM202.953 19.1C202.953 18.34 203.633 17.74 204.473 17.74C205.313 17.74 205.953 18.34 205.953 19.1C205.953 19.82 205.313 20.46 204.473 20.46C203.633 20.46 202.953 19.82 202.953 19.1ZM181.273 22.62C181.273 23.38 180.593 23.98 179.753 23.98C178.913 23.98 178.273 23.38 178.273 22.62C178.273 21.86 178.913 21.26 179.753 21.26C180.593 21.26 181.273 21.86 181.273 22.62ZM203.353 22.62C203.353 21.86 204.033 21.26 204.873 21.26C205.713 21.26 206.353 21.86 206.353 22.62C206.353 23.38 205.713 23.98 204.873 23.98C204.033 23.98 203.353 23.38 203.353 22.62ZM181.673 26.1C181.673 26.86 180.993 27.46 180.153 27.46C179.313 27.46 178.673 26.86 178.673 26.1C178.673 25.42 179.313 24.78 180.153 24.78C180.993 24.78 181.673 25.42 181.673 26.1ZM202.953 26.1C202.953 25.42 203.633 24.78 204.473 24.78C205.313 24.78 205.953 25.42 205.953 26.1C205.953 26.86 205.313 27.46 204.473 27.46C203.633 27.46 202.953 26.86 202.953 26.1ZM182.873 29.5C182.873 30.22 182.193 30.82 181.353 30.82C180.513 30.82 179.873 30.22 179.873 29.5C179.873 28.74 180.553 28.14 181.353 28.14C182.153 28.14 182.873 28.78 182.873 29.5ZM201.753 29.5C201.753 28.74 202.473 28.14 203.273 28.14C204.073 28.14 204.753 28.74 204.753 29.5C204.753 30.22 204.113 30.82 203.273 30.82C202.433 30.82 201.753 30.22 201.753 29.5ZM185.113 32.38C185.113 33.14 184.433 33.74 183.593 33.74C182.753 33.74 182.113 33.14 182.113 32.38C182.113 31.62 182.753 31.02 183.593 31.02C184.433 31.02 185.113 31.62 185.113 32.38ZM199.513 32.38C199.513 31.62 200.193 31.02 201.033 31.02C201.873 31.02 202.513 31.62 202.513 32.38C202.513 33.14 201.873 33.74 201.033 33.74C200.193 33.74 199.513 33.14 199.513 32.38ZM188.153 34.62C188.153 35.34 187.513 35.9 186.673 35.9C185.833 35.9 185.233 35.34 185.233 34.62C185.233 33.86 185.833 33.3 186.673 33.3C187.513 33.3 188.153 33.86 188.153 34.62ZM196.473 34.62C196.473 33.86 197.113 33.3 197.953 33.3C198.793 33.3 199.393 33.86 199.393 34.62C199.393 35.34 198.793 35.9 197.953 35.9C197.113 35.9 196.473 35.34 196.473 34.62ZM191.833 35.7C191.833 36.42 191.193 36.98 190.393 36.98C189.553 36.98 188.953 36.42 188.953 35.7C188.953 34.98 189.553 34.38 190.393 34.38C191.193 34.38 191.833 34.98 191.833 35.7ZM192.793 35.7C192.793 34.98 193.433 34.38 194.233 34.38C195.073 34.38 195.673 34.98 195.673 35.7C195.673 36.42 195.073 36.98 194.233 36.98C193.433 36.98 192.793 36.42 192.793 35.7ZM214.83 9.78C214.83 10.54 214.15 11.14 213.31 11.14C212.47 11.14 211.83 10.54 211.83 9.78C211.83 9.02 212.47 8.42 213.31 8.42C214.15 8.42 214.83 9.02 214.83 9.78ZM218.55 9.7C218.55 10.42 217.91 11.02 217.07 11.02C216.27 11.02 215.67 10.42 215.67 9.7C215.67 8.98 216.27 8.42 217.07 8.42C217.91 8.42 218.55 8.98 218.55 9.7ZM222.27 9.7C222.27 10.42 221.63 11.02 220.79 11.02C219.99 11.02 219.39 10.42 219.39 9.7C219.39 8.98 219.99 8.42 220.79 8.42C221.63 8.42 222.27 8.98 222.27 9.7ZM223.07 9.82C223.07 9.1 223.71 8.54 224.51 8.54C225.35 8.54 225.95 9.1 225.95 9.82C225.95 10.54 225.35 11.14 224.51 11.14C223.71 11.14 223.07 10.54 223.07 9.82ZM226.63 10.92C226.63 10.2 227.27 9.64 228.11 9.64C228.95 9.64 229.55 10.2 229.55 10.92C229.55 11.68 228.95 12.24 228.11 12.24C227.27 12.24 226.63 11.68 226.63 10.92ZM214.83 13.38C214.83 14.18 214.15 14.78 213.31 14.78C212.47 14.78 211.83 14.18 211.83 13.38C211.83 12.62 212.47 12.02 213.31 12.02C214.15 12.02 214.83 12.62 214.83 13.38ZM229.25 13.66C229.25 12.86 229.93 12.24 230.77 12.24C231.61 12.24 232.25 12.86 232.25 13.66C232.25 14.44 231.63 15.06 230.77 15.06C229.93 15.06 229.25 14.44 229.25 13.66ZM214.83 17.02C214.83 17.78 214.15 18.38 213.31 18.38C212.47 18.38 211.83 17.78 211.83 17.02C211.83 16.26 212.47 15.66 213.31 15.66C214.15 15.66 214.83 16.26 214.83 17.02ZM230.01 17.38C230.01 16.6 230.69 15.98 231.53 15.98C232.37 15.98 233.01 16.6 233.01 17.38C233.01 18.2 232.37 18.78 231.53 18.78C230.69 18.78 230.01 18.2 230.01 17.38ZM214.83 20.66C214.83 21.42 214.15 22.02 213.31 22.02C212.47 22.02 211.83 21.42 211.83 20.66C211.83 19.86 212.47 19.26 213.31 19.26C214.15 19.26 214.83 19.86 214.83 20.66ZM228.91 21C228.91 20.2 229.59 19.58 230.43 19.58C231.27 19.58 231.91 20.2 231.91 21C231.91 21.82 231.27 22.4 230.43 22.4C229.59 22.4 228.91 21.82 228.91 21ZM226.15 23.5C226.15 22.72 226.79 22.14 227.63 22.14C228.47 22.14 229.07 22.72 229.07 23.5C229.07 24.26 228.47 24.88 227.63 24.88C226.79 24.88 226.15 24.26 226.15 23.5ZM214.83 24.26C214.83 25.02 214.15 25.62 213.31 25.62C212.47 25.62 211.83 25.02 211.83 24.26C211.83 23.5 212.47 22.9 213.31 22.9C214.15 22.9 214.83 23.5 214.83 24.26ZM218.59 24.3C218.59 25.02 217.95 25.58 217.11 25.58C216.31 25.58 215.71 25.02 215.71 24.3C215.71 23.58 216.31 22.98 217.11 22.98C217.95 22.98 218.59 23.58 218.59 24.3ZM222.27 24.3C222.27 25.02 221.63 25.58 220.79 25.58C219.99 25.58 219.39 25.02 219.39 24.3C219.39 23.58 219.99 22.98 220.79 22.98C221.63 22.98 222.27 23.58 222.27 24.3ZM225.51 24.18C225.51 24.8 224.97 25.34 224.31 25.34C223.65 25.34 223.13 24.8 223.13 24.18C223.13 23.44 223.69 23 224.31 23C224.97 23 225.51 23.48 225.51 24.18ZM227.27 26.8C227.27 27.42 226.73 27.96 226.07 27.96C225.41 27.96 224.89 27.42 224.89 26.8C224.89 26.06 225.45 25.62 226.07 25.62C226.73 25.62 227.27 26.1 227.27 26.8ZM214.83 27.9C214.83 28.66 214.15 29.26 213.31 29.26C212.47 29.26 211.83 28.66 211.83 27.9C211.83 27.14 212.47 26.5 213.31 26.5C214.15 26.5 214.83 27.14 214.83 27.9ZM229.83 29.38C229.83 30.1 229.15 30.7 228.31 30.7C227.47 30.7 226.83 30.1 226.83 29.38C226.83 28.66 227.47 28.1 228.31 28.1C229.15 28.1 229.83 28.66 229.83 29.38ZM214.83 31.5C214.83 32.26 214.15 32.86 213.31 32.86C212.47 32.86 211.83 32.26 211.83 31.5C211.83 30.74 212.51 30.14 213.31 30.14C214.15 30.14 214.83 30.74 214.83 31.5ZM231.95 32.26C231.95 33.02 231.27 33.58 230.43 33.58C229.59 33.58 228.95 33.02 228.95 32.26C228.95 31.54 229.59 30.98 230.43 30.98C231.27 30.98 231.95 31.54 231.95 32.26ZM214.83 35.14C214.83 35.9 214.15 36.5 213.31 36.5C212.47 36.5 211.83 35.9 211.83 35.14C211.83 34.38 212.47 33.78 213.31 33.78C214.15 33.78 214.83 34.38 214.83 35.14ZM234.03 35.22C234.03 35.94 233.35 36.54 232.51 36.54C231.67 36.54 231.03 35.94 231.03 35.22C231.03 34.5 231.67 33.94 232.51 33.94C233.35 33.94 234.03 34.5 234.03 35.22ZM238.075 9.78C238.075 10.54 237.395 11.14 236.555 11.14C235.715 11.14 235.075 10.54 235.075 9.78C235.075 9.02 235.715 8.42 236.555 8.42C237.395 8.42 238.075 9.02 238.075 9.78ZM241.955 9.78C241.955 10.54 241.275 11.14 240.435 11.14C239.595 11.14 238.955 10.54 238.955 9.78C238.955 9.02 239.595 8.42 240.435 8.42C241.275 8.42 241.955 9.02 241.955 9.78ZM245.755 9.74C245.755 10.46 245.115 11.02 244.275 11.02C243.475 11.02 242.835 10.46 242.835 9.74C242.835 9.02 243.475 8.42 244.275 8.42C245.115 8.42 245.755 9.02 245.755 9.74ZM249.555 9.74C249.555 10.46 248.875 11.02 248.075 11.02C247.275 11.02 246.635 10.46 246.635 9.74C246.635 9.02 247.275 8.42 248.075 8.42C248.875 8.42 249.555 9.02 249.555 9.74ZM253.315 9.74C253.315 10.46 252.635 11.02 251.875 11.02C251.035 11.02 250.435 10.46 250.435 9.74C250.435 9.02 251.035 8.42 251.875 8.42C252.635 8.42 253.315 9.02 253.315 9.74ZM257.075 9.74C257.075 10.46 256.435 11.02 255.635 11.02C254.755 11.02 254.195 10.46 254.195 9.74C254.195 9.02 254.755 8.42 255.635 8.42C256.435 8.42 257.075 9.02 257.075 9.74ZM247.695 12.8C247.695 13.62 246.995 14.24 246.155 14.24C245.315 14.24 244.675 13.62 244.675 12.8C244.675 12.02 245.315 11.4 246.155 11.4C246.995 11.4 247.695 12.02 247.695 12.8ZM247.695 16.52C247.695 17.3 246.995 17.92 246.155 17.92C245.315 17.92 244.675 17.3 244.675 16.52C244.675 15.74 245.315 15.14 246.155 15.14C246.995 15.14 247.695 15.74 247.695 16.52ZM247.695 20.26C247.695 21.04 246.995 21.64 246.155 21.64C245.315 21.64 244.675 21.04 244.675 20.26C244.675 19.44 245.315 18.82 246.155 18.82C246.995 18.82 247.695 19.44 247.695 20.26ZM247.695 23.94C247.695 24.72 246.995 25.34 246.155 25.34C245.315 25.34 244.675 24.72 244.675 23.94C244.675 23.16 245.315 22.54 246.155 22.54C246.995 22.54 247.695 23.16 247.695 23.94ZM247.695 27.68C247.695 28.44 246.995 29.06 246.155 29.06C245.315 29.06 244.675 28.44 244.675 27.68C244.675 26.9 245.315 26.24 246.155 26.24C246.995 26.24 247.695 26.9 247.695 27.68ZM247.695 31.36C247.695 32.14 246.995 32.76 246.155 32.76C245.315 32.76 244.675 32.14 244.675 31.36C244.675 30.58 245.355 29.96 246.155 29.96C246.995 29.96 247.695 30.58 247.695 31.36ZM247.695 35.1C247.695 35.88 246.995 36.5 246.155 36.5C245.315 36.5 244.675 35.88 244.675 35.1C244.675 34.32 245.315 33.72 246.155 33.72C246.995 33.72 247.695 34.32 247.695 35.1ZM274.126 9.78C274.126 10.54 273.446 11.14 272.606 11.14C271.766 11.14 271.126 10.54 271.126 9.78C271.126 9.02 271.766 8.42 272.606 8.42C273.446 8.42 274.126 9.02 274.126 9.78ZM277.926 9.74C277.926 10.46 277.286 11.02 276.446 11.02C275.646 11.02 275.006 10.46 275.006 9.74C275.006 9.02 275.646 8.42 276.446 8.42C277.286 8.42 277.926 9.02 277.926 9.74ZM281.726 9.74C281.726 10.46 281.046 11.02 280.246 11.02C279.446 11.02 278.806 10.46 278.806 9.74C278.806 9.02 279.446 8.42 280.246 8.42C281.046 8.42 281.726 9.02 281.726 9.74ZM282.606 9.78C282.606 9.06 283.206 8.5 284.006 8.5C284.846 8.5 285.406 9.06 285.406 9.78C285.406 10.5 284.846 11.1 284.006 11.1C283.206 11.1 282.606 10.5 282.606 9.78ZM286.086 10.7C286.086 9.98 286.686 9.42 287.486 9.42C288.326 9.42 288.886 9.98 288.886 10.7C288.886 11.42 288.326 12.02 287.486 12.02C286.686 12.02 286.086 11.42 286.086 10.7ZM289.086 12.62C289.086 11.9 289.686 11.34 290.526 11.34C291.366 11.34 291.926 11.9 291.926 12.62C291.926 13.38 291.366 13.98 290.526 13.98C289.686 13.98 289.086 13.38 289.086 12.62ZM274.126 13.38C274.126 14.18 273.446 14.78 272.606 14.78C271.766 14.78 271.126 14.18 271.126 13.38C271.126 12.62 271.766 12.02 272.606 12.02C273.446 12.02 274.126 12.62 274.126 13.38ZM291.286 15.5C291.286 14.74 291.966 14.14 292.806 14.14C293.646 14.14 294.286 14.74 294.286 15.5C294.286 16.26 293.606 16.86 292.806 16.86C291.966 16.86 291.286 16.26 291.286 15.5ZM274.126 17.02C274.126 17.78 273.446 18.38 272.606 18.38C271.766 18.38 271.126 17.78 271.126 17.02C271.126 16.26 271.766 15.66 272.606 15.66C273.446 15.66 274.126 16.26 274.126 17.02ZM292.526 18.86C292.526 18.14 293.206 17.5 294.046 17.5C294.886 17.5 295.526 18.1 295.526 18.86C295.526 19.62 294.886 20.26 294.046 20.26C293.206 20.26 292.526 19.62 292.526 18.86ZM274.126 20.66C274.126 21.42 273.446 22.02 272.606 22.02C271.766 22.02 271.126 21.42 271.126 20.66C271.126 19.86 271.766 19.26 272.606 19.26C273.446 19.26 274.126 19.86 274.126 20.66ZM292.966 22.46C292.966 21.7 293.646 21.1 294.486 21.1C295.326 21.1 295.966 21.7 295.966 22.46C295.966 23.22 295.326 23.82 294.486 23.82C293.646 23.82 292.966 23.22 292.966 22.46ZM274.126 24.26C274.126 25.02 273.446 25.62 272.606 25.62C271.766 25.62 271.126 25.02 271.126 24.26C271.126 23.5 271.766 22.9 272.606 22.9C273.446 22.9 274.126 23.5 274.126 24.26ZM292.526 26.06C292.526 25.3 293.206 24.66 294.046 24.66C294.886 24.66 295.526 25.3 295.526 26.06C295.526 26.82 294.886 27.42 294.046 27.42C293.206 27.42 292.526 26.82 292.526 26.06ZM274.126 27.9C274.126 28.66 273.446 29.26 272.606 29.26C271.766 29.26 271.126 28.66 271.126 27.9C271.126 27.14 271.766 26.5 272.606 26.5C273.446 26.5 274.126 27.14 274.126 27.9ZM291.286 29.42C291.286 28.66 291.966 28.06 292.806 28.06C293.606 28.06 294.286 28.66 294.286 29.42C294.286 30.18 293.646 30.78 292.806 30.78C291.966 30.78 291.286 30.18 291.286 29.42ZM274.126 31.5C274.126 32.26 273.446 32.86 272.606 32.86C271.766 32.86 271.126 32.26 271.126 31.5C271.126 30.74 271.806 30.14 272.606 30.14C273.446 30.14 274.126 30.74 274.126 31.5ZM289.086 32.26C289.086 31.5 289.686 30.9 290.526 30.9C291.366 30.9 291.926 31.5 291.926 32.26C291.926 32.98 291.366 33.54 290.526 33.54C289.686 33.54 289.086 32.98 289.086 32.26ZM286.166 34.26C286.166 33.54 286.766 32.94 287.566 32.94C288.406 32.94 288.966 33.54 288.966 34.26C288.966 34.98 288.406 35.54 287.566 35.54C286.766 35.54 286.166 34.98 286.166 34.26ZM274.126 35.14C274.126 35.9 273.446 36.5 272.606 36.5C271.766 36.5 271.126 35.9 271.126 35.14C271.126 34.38 271.766 33.78 272.606 33.78C273.446 33.78 274.126 34.38 274.126 35.14ZM282.726 35.14C282.726 34.42 283.326 33.82 284.126 33.82C284.966 33.82 285.526 34.42 285.526 35.14C285.526 35.86 284.966 36.42 284.126 36.42C283.326 36.42 282.726 35.86 282.726 35.14ZM277.926 35.22C277.926 35.94 277.286 36.5 276.446 36.5C275.646 36.5 275.006 35.94 275.006 35.22C275.006 34.5 275.646 33.9 276.446 33.9C277.286 33.9 277.926 34.5 277.926 35.22ZM281.726 35.22C281.726 35.94 281.046 36.5 280.246 36.5C279.446 36.5 278.806 35.94 278.806 35.22C278.806 34.5 279.446 33.9 280.246 33.9C281.046 33.9 281.726 34.5 281.726 35.22ZM304.205 9.78C304.205 10.54 303.525 11.14 302.685 11.14C301.845 11.14 301.205 10.54 301.205 9.78C301.205 9.02 301.845 8.42 302.685 8.42C303.525 8.42 304.205 9.02 304.205 9.78ZM304.205 13.38C304.205 14.18 303.525 14.78 302.685 14.78C301.845 14.78 301.205 14.18 301.205 13.38C301.205 12.62 301.845 12.02 302.685 12.02C303.525 12.02 304.205 12.62 304.205 13.38ZM304.205 17.02C304.205 17.78 303.525 18.38 302.685 18.38C301.845 18.38 301.205 17.78 301.205 17.02C301.205 16.26 301.845 15.66 302.685 15.66C303.525 15.66 304.205 16.26 304.205 17.02ZM304.205 20.66C304.205 21.42 303.525 22.02 302.685 22.02C301.845 22.02 301.205 21.42 301.205 20.66C301.205 19.86 301.845 19.26 302.685 19.26C303.525 19.26 304.205 19.86 304.205 20.66ZM304.205 24.26C304.205 25.02 303.525 25.62 302.685 25.62C301.845 25.62 301.205 25.02 301.205 24.26C301.205 23.5 301.845 22.9 302.685 22.9C303.525 22.9 304.205 23.5 304.205 24.26ZM304.205 27.9C304.205 28.66 303.525 29.26 302.685 29.26C301.845 29.26 301.205 28.66 301.205 27.9C301.205 27.14 301.845 26.5 302.685 26.5C303.525 26.5 304.205 27.14 304.205 27.9ZM304.205 31.5C304.205 32.26 303.525 32.86 302.685 32.86C301.845 32.86 301.205 32.26 301.205 31.5C301.205 30.74 301.885 30.14 302.685 30.14C303.525 30.14 304.205 30.74 304.205 31.5ZM304.205 35.14C304.205 35.9 303.525 36.5 302.685 36.5C301.845 36.5 301.205 35.9 301.205 35.14C301.205 34.38 301.845 33.78 302.685 33.78C303.525 33.78 304.205 34.38 304.205 35.14ZM320.318 9.38C320.318 10.1 319.678 10.7 318.878 10.7C318.038 10.7 317.438 10.1 317.438 9.38C317.438 8.66 318.038 8.1 318.878 8.1C319.678 8.1 320.318 8.66 320.318 9.38ZM321.198 9.38C321.198 8.66 321.838 8.1 322.638 8.1C323.478 8.1 324.078 8.66 324.078 9.38C324.078 10.1 323.478 10.7 322.638 10.7C321.838 10.7 321.198 10.1 321.198 9.38ZM316.718 10.38C316.718 11.14 316.078 11.74 315.238 11.74C314.398 11.74 313.798 11.14 313.798 10.38C313.798 9.66 314.398 9.1 315.238 9.1C316.078 9.1 316.718 9.66 316.718 10.38ZM324.758 10.38C324.758 9.66 325.398 9.1 326.238 9.1C327.078 9.1 327.678 9.66 327.678 10.38C327.678 11.14 327.078 11.74 326.238 11.74C325.398 11.74 324.758 11.14 324.758 10.38ZM327.558 12.78C327.558 12.02 328.238 11.42 329.078 11.42C329.918 11.42 330.558 12.02 330.558 12.78C330.558 13.54 329.918 14.14 329.078 14.14C328.238 14.14 327.558 13.54 327.558 12.78ZM313.998 12.86C313.998 13.62 313.318 14.22 312.478 14.22C311.638 14.22 310.998 13.62 310.998 12.86C310.998 12.1 311.638 11.5 312.478 11.5C313.318 11.5 313.998 12.1 313.998 12.86ZM313.118 16.48C313.118 17.24 312.438 17.84 311.598 17.84C310.798 17.84 310.118 17.24 310.118 16.48C310.118 15.72 310.758 15.12 311.598 15.12C312.438 15.12 313.118 15.72 313.118 16.48ZM314.758 19.84C314.758 20.6 314.078 21.24 313.238 21.24C312.398 21.24 311.758 20.6 311.758 19.84C311.758 19.08 312.398 18.48 313.238 18.48C314.078 18.48 314.758 19.08 314.758 19.84ZM318.318 21.24C318.318 22 317.678 22.6 316.838 22.6C315.998 22.6 315.398 22 315.398 21.24C315.398 20.52 315.998 19.96 316.838 19.96C317.678 19.96 318.318 20.52 318.318 21.24ZM322.258 21.68C322.258 22.44 321.618 23.04 320.778 23.04C319.938 23.04 319.338 22.44 319.338 21.68C319.338 20.96 319.938 20.4 320.778 20.4C321.618 20.4 322.258 20.96 322.258 21.68ZM323.198 22.36C323.198 21.6 323.838 21 324.678 21C325.518 21 326.118 21.6 326.118 22.36C326.118 23.08 325.518 23.64 324.678 23.64C323.838 23.64 323.198 23.08 323.198 22.36ZM326.578 24.02C326.578 23.26 327.258 22.62 328.098 22.62C328.938 22.62 329.578 23.26 329.578 24.02C329.578 24.78 328.938 25.38 328.098 25.38C327.258 25.38 326.578 24.78 326.578 24.02ZM328.978 26.96C328.978 26.2 329.658 25.6 330.498 25.6C331.298 25.6 331.978 26.2 331.978 26.96C331.978 27.72 331.338 28.32 330.498 28.32C329.658 28.32 328.978 27.72 328.978 26.96ZM328.638 30.68C328.638 29.92 329.318 29.32 330.158 29.32C330.998 29.32 331.638 29.92 331.638 30.68C331.638 31.44 330.998 32.04 330.158 32.04C329.318 32.04 328.638 31.44 328.638 30.68ZM312.318 30.82C312.318 31.58 311.638 32.18 310.798 32.18C309.958 32.18 309.318 31.58 309.318 30.82C309.318 30.06 309.958 29.46 310.798 29.46C311.638 29.46 312.318 30.06 312.318 30.82ZM314.798 33.58C314.798 34.34 314.118 34.94 313.278 34.94C312.438 34.94 311.798 34.34 311.798 33.58C311.798 32.82 312.438 32.22 313.278 32.22C314.118 32.22 314.798 32.82 314.798 33.58ZM326.358 33.58C326.358 32.82 326.998 32.22 327.838 32.22C328.678 32.22 329.278 32.82 329.278 33.58C329.278 34.3 328.678 34.86 327.838 34.86C326.998 34.86 326.358 34.3 326.358 33.58ZM322.878 35.02C322.878 34.3 323.518 33.7 324.318 33.7C325.158 33.7 325.758 34.3 325.758 35.02C325.758 35.74 325.158 36.3 324.318 36.3C323.518 36.3 322.878 35.74 322.878 35.02ZM318.238 35.18C318.238 35.9 317.598 36.46 316.758 36.46C315.918 36.46 315.318 35.9 315.318 35.18C315.318 34.42 315.918 33.82 316.758 33.82C317.598 33.82 318.238 34.42 318.238 35.18ZM321.998 35.7C321.998 36.42 321.358 36.98 320.558 36.98C319.718 36.98 319.118 36.42 319.118 35.7C319.118 34.98 319.718 34.38 320.558 34.38C321.358 34.38 321.998 34.98 321.998 35.7ZM348.981 9.38C348.981 10.1 348.341 10.7 347.541 10.7C346.701 10.7 346.101 10.1 346.101 9.38C346.101 8.66 346.701 8.1 347.541 8.1C348.341 8.1 348.981 8.66 348.981 9.38ZM349.941 9.38C349.941 8.66 350.581 8.1 351.381 8.1C352.221 8.1 352.821 8.66 352.821 9.38C352.821 10.1 352.221 10.7 351.381 10.7C350.581 10.7 349.941 10.1 349.941 9.38ZM345.301 10.46C345.301 11.22 344.661 11.82 343.821 11.82C342.981 11.82 342.381 11.22 342.381 10.46C342.381 9.74 342.981 9.18 343.821 9.18C344.661 9.18 345.301 9.74 345.301 10.46ZM353.621 10.54C353.621 9.82 354.261 9.26 355.101 9.26C355.941 9.26 356.541 9.82 356.541 10.54C356.541 11.3 355.941 11.9 355.101 11.9C354.261 11.9 353.621 11.3 353.621 10.54ZM342.261 12.74C342.261 13.5 341.581 14.1 340.741 14.1C339.901 14.1 339.261 13.5 339.261 12.74C339.261 11.98 339.901 11.38 340.741 11.38C341.581 11.38 342.261 11.98 342.261 12.74ZM356.661 12.9C356.661 12.14 357.341 11.54 358.181 11.54C359.021 11.54 359.661 12.14 359.661 12.9C359.661 13.66 359.021 14.26 358.181 14.26C357.341 14.26 356.661 13.66 356.661 12.9ZM340.021 15.7C340.021 16.42 339.301 17.06 338.501 17.06C337.701 17.06 337.021 16.46 337.021 15.7C337.021 14.94 337.661 14.34 338.501 14.34C339.341 14.34 340.021 14.94 340.021 15.7ZM338.821 19.1C338.821 19.82 338.141 20.46 337.301 20.46C336.461 20.46 335.821 19.82 335.821 19.1C335.821 18.34 336.461 17.74 337.301 17.74C338.141 17.74 338.821 18.34 338.821 19.1ZM338.421 22.62C338.421 23.38 337.741 23.98 336.901 23.98C336.061 23.98 335.421 23.38 335.421 22.62C335.421 21.86 336.061 21.26 336.901 21.26C337.741 21.26 338.421 21.86 338.421 22.62ZM338.821 26.1C338.821 26.86 338.141 27.46 337.301 27.46C336.461 27.46 335.821 26.86 335.821 26.1C335.821 25.42 336.461 24.78 337.301 24.78C338.141 24.78 338.821 25.42 338.821 26.1ZM340.021 29.5C340.021 30.22 339.341 30.82 338.501 30.82C337.661 30.82 337.021 30.22 337.021 29.5C337.021 28.74 337.701 28.14 338.501 28.14C339.301 28.14 340.021 28.78 340.021 29.5ZM356.661 32.22C356.661 31.46 357.341 30.86 358.181 30.86C359.021 30.86 359.661 31.46 359.661 32.22C359.661 32.98 359.021 33.58 358.181 33.58C357.341 33.58 356.661 32.98 356.661 32.22ZM342.261 32.38C342.261 33.14 341.581 33.74 340.741 33.74C339.901 33.74 339.261 33.14 339.261 32.38C339.261 31.62 339.901 31.02 340.741 31.02C341.581 31.02 342.261 31.62 342.261 32.38ZM353.621 34.54C353.621 33.78 354.261 33.22 355.101 33.22C355.941 33.22 356.541 33.78 356.541 34.54C356.541 35.26 355.941 35.82 355.101 35.82C354.261 35.82 353.621 35.26 353.621 34.54ZM345.301 34.62C345.301 35.34 344.661 35.9 343.821 35.9C342.981 35.9 342.381 35.34 342.381 34.62C342.381 33.86 342.981 33.3 343.821 33.3C344.661 33.3 345.301 33.86 345.301 34.62ZM348.981 35.7C348.981 36.42 348.341 36.98 347.541 36.98C346.701 36.98 346.101 36.42 346.101 35.7C346.101 34.98 346.701 34.38 347.541 34.38C348.341 34.38 348.981 34.98 348.981 35.7ZM349.941 35.7C349.941 34.98 350.581 34.38 351.381 34.38C352.221 34.38 352.821 34.98 352.821 35.7C352.821 36.42 352.221 36.98 351.381 36.98C350.581 36.98 349.941 36.42 349.941 35.7ZM376.911 9.38C376.911 10.1 376.271 10.7 375.471 10.7C374.631 10.7 374.031 10.1 374.031 9.38C374.031 8.66 374.631 8.1 375.471 8.1C376.271 8.1 376.911 8.66 376.911 9.38ZM377.871 9.38C377.871 8.66 378.511 8.1 379.311 8.1C380.151 8.1 380.751 8.66 380.751 9.38C380.751 10.1 380.151 10.7 379.311 10.7C378.511 10.7 377.871 10.1 377.871 9.38ZM373.231 10.46C373.231 11.22 372.591 11.82 371.751 11.82C370.911 11.82 370.311 11.22 370.311 10.46C370.311 9.74 370.911 9.18 371.751 9.18C372.591 9.18 373.231 9.74 373.231 10.46ZM381.551 10.46C381.551 9.74 382.191 9.18 383.031 9.18C383.871 9.18 384.471 9.74 384.471 10.46C384.471 11.22 383.871 11.82 383.031 11.82C382.191 11.82 381.551 11.22 381.551 10.46ZM370.191 12.74C370.191 13.5 369.511 14.1 368.671 14.1C367.831 14.1 367.191 13.5 367.191 12.74C367.191 11.98 367.831 11.38 368.671 11.38C369.511 11.38 370.191 11.98 370.191 12.74ZM384.591 12.74C384.591 11.98 385.271 11.38 386.111 11.38C386.951 11.38 387.591 11.98 387.591 12.74C387.591 13.5 386.951 14.1 386.111 14.1C385.271 14.1 384.591 13.5 384.591 12.74ZM367.951 15.7C367.951 16.42 367.231 17.06 366.431 17.06C365.631 17.06 364.951 16.46 364.951 15.7C364.951 14.94 365.591 14.34 366.431 14.34C367.271 14.34 367.951 14.94 367.951 15.7ZM386.831 15.7C386.831 14.94 387.511 14.34 388.351 14.34C389.191 14.34 389.831 14.94 389.831 15.7C389.831 16.46 389.151 17.06 388.351 17.06C387.551 17.06 386.831 16.46 386.831 15.7ZM366.751 19.1C366.751 19.82 366.071 20.46 365.231 20.46C364.391 20.46 363.751 19.82 363.751 19.1C363.751 18.34 364.391 17.74 365.231 17.74C366.071 17.74 366.751 18.34 366.751 19.1ZM388.031 19.1C388.031 18.34 388.711 17.74 389.551 17.74C390.391 17.74 391.031 18.34 391.031 19.1C391.031 19.82 390.391 20.46 389.551 20.46C388.711 20.46 388.031 19.82 388.031 19.1ZM366.351 22.62C366.351 23.38 365.671 23.98 364.831 23.98C363.991 23.98 363.351 23.38 363.351 22.62C363.351 21.86 363.991 21.26 364.831 21.26C365.671 21.26 366.351 21.86 366.351 22.62ZM388.431 22.62C388.431 21.86 389.111 21.26 389.951 21.26C390.791 21.26 391.431 21.86 391.431 22.62C391.431 23.38 390.791 23.98 389.951 23.98C389.111 23.98 388.431 23.38 388.431 22.62ZM366.751 26.1C366.751 26.86 366.071 27.46 365.231 27.46C364.391 27.46 363.751 26.86 363.751 26.1C363.751 25.42 364.391 24.78 365.231 24.78C366.071 24.78 366.751 25.42 366.751 26.1ZM388.031 26.1C388.031 25.42 388.711 24.78 389.551 24.78C390.391 24.78 391.031 25.42 391.031 26.1C391.031 26.86 390.391 27.46 389.551 27.46C388.711 27.46 388.031 26.86 388.031 26.1ZM367.951 29.5C367.951 30.22 367.271 30.82 366.431 30.82C365.591 30.82 364.951 30.22 364.951 29.5C364.951 28.74 365.631 28.14 366.431 28.14C367.231 28.14 367.951 28.78 367.951 29.5ZM386.831 29.5C386.831 28.74 387.551 28.14 388.351 28.14C389.151 28.14 389.831 28.74 389.831 29.5C389.831 30.22 389.191 30.82 388.351 30.82C387.511 30.82 386.831 30.22 386.831 29.5ZM370.191 32.38C370.191 33.14 369.511 33.74 368.671 33.74C367.831 33.74 367.191 33.14 367.191 32.38C367.191 31.62 367.831 31.02 368.671 31.02C369.511 31.02 370.191 31.62 370.191 32.38ZM384.591 32.38C384.591 31.62 385.271 31.02 386.111 31.02C386.951 31.02 387.591 31.62 387.591 32.38C387.591 33.14 386.951 33.74 386.111 33.74C385.271 33.74 384.591 33.14 384.591 32.38ZM373.231 34.62C373.231 35.34 372.591 35.9 371.751 35.9C370.911 35.9 370.311 35.34 370.311 34.62C370.311 33.86 370.911 33.3 371.751 33.3C372.591 33.3 373.231 33.86 373.231 34.62ZM381.551 34.62C381.551 33.86 382.191 33.3 383.031 33.3C383.871 33.3 384.471 33.86 384.471 34.62C384.471 35.34 383.871 35.9 383.031 35.9C382.191 35.9 381.551 35.34 381.551 34.62ZM376.911 35.7C376.911 36.42 376.271 36.98 375.471 36.98C374.631 36.98 374.031 36.42 374.031 35.7C374.031 34.98 374.631 34.38 375.471 34.38C376.271 34.38 376.911 34.98 376.911 35.7ZM377.871 35.7C377.871 34.98 378.511 34.38 379.311 34.38C380.151 34.38 380.751 34.98 380.751 35.7C380.751 36.42 380.151 36.98 379.311 36.98C378.511 36.98 377.871 36.42 377.871 35.7ZM396.18 9.7C396.18 10.46 395.5 11.02 394.66 11.02C393.82 11.02 393.18 10.46 393.18 9.7C393.18 8.98 393.82 8.42 394.66 8.42C395.5 8.42 396.18 8.98 396.18 9.7ZM416.54 9.7C416.54 8.98 417.22 8.42 418.06 8.42C418.9 8.42 419.54 8.98 419.54 9.7C419.54 10.46 418.9 11.02 418.06 11.02C417.22 11.02 416.54 10.46 416.54 9.7ZM397.66 12.98C397.66 13.7 396.98 14.26 396.14 14.26C395.3 14.26 394.66 13.7 394.66 12.98C394.66 12.22 395.3 11.66 396.14 11.66C396.98 11.66 397.66 12.22 397.66 12.98ZM415.06 12.98C415.06 12.22 415.74 11.66 416.58 11.66C417.42 11.66 418.06 12.22 418.06 12.98C418.06 13.7 417.42 14.26 416.58 14.26C415.74 14.26 415.06 13.7 415.06 12.98ZM399.18 16.14C399.18 16.86 398.5 17.42 397.66 17.42C396.82 17.42 396.18 16.86 396.18 16.14C396.18 15.38 396.82 14.82 397.66 14.82C398.5 14.82 399.18 15.38 399.18 16.14ZM413.66 16.22C413.66 15.46 414.34 14.9 415.18 14.9C416.02 14.9 416.66 15.46 416.66 16.22C416.66 16.9 416.02 17.5 415.18 17.5C414.34 17.5 413.66 16.9 413.66 16.22ZM400.54 19.34C400.54 20.1 399.86 20.66 399.02 20.66C398.18 20.66 397.54 20.1 397.54 19.34C397.54 18.66 398.18 18.06 399.02 18.06C399.86 18.06 400.54 18.66 400.54 19.34ZM412.18 19.34C412.18 18.66 412.86 18.06 413.7 18.06C414.54 18.06 415.18 18.66 415.18 19.34C415.18 20.1 414.54 20.66 413.7 20.66C412.86 20.66 412.18 20.1 412.18 19.34ZM401.98 22.58C401.98 23.3 401.3 23.86 400.46 23.86C399.62 23.86 398.98 23.3 398.98 22.58C398.98 21.82 399.62 21.3 400.46 21.3C401.3 21.3 401.98 21.82 401.98 22.58ZM410.74 22.58C410.74 21.82 411.42 21.3 412.26 21.3C413.1 21.3 413.74 21.82 413.74 22.58C413.74 23.3 413.1 23.86 412.26 23.86C411.42 23.86 410.74 23.3 410.74 22.58ZM403.46 25.74C403.46 26.46 402.78 27.02 401.94 27.02C401.1 27.02 400.46 26.46 400.46 25.74C400.46 25.02 401.1 24.42 401.94 24.42C402.78 24.42 403.46 25.02 403.46 25.74ZM409.26 25.74C409.26 25.02 409.94 24.42 410.78 24.42C411.62 24.42 412.26 25.02 412.26 25.74C412.26 26.46 411.62 27.02 410.78 27.02C409.94 27.02 409.26 26.46 409.26 25.74ZM404.94 28.9C404.94 29.62 404.26 30.22 403.42 30.22C402.58 30.22 401.94 29.62 401.94 28.9C401.94 28.18 402.58 27.62 403.42 27.62C404.26 27.62 404.94 28.18 404.94 28.9ZM407.78 28.9C407.78 28.18 408.46 27.62 409.3 27.62C410.14 27.62 410.78 28.18 410.78 28.9C410.78 29.62 410.14 30.22 409.3 30.22C408.46 30.22 407.78 29.62 407.78 28.9ZM405.9 32.12C405.9 32.8 405.3 33.4 404.58 33.4C403.86 33.4 403.3 32.8 403.3 32.12C403.3 31.32 403.9 30.84 404.58 30.84C405.3 30.84 405.9 31.36 405.9 32.12ZM409.28 32.12C409.28 32.8 408.68 33.4 407.96 33.4C407.24 33.4 406.68 32.8 406.68 32.12C406.68 31.32 407.28 30.84 407.96 30.84C408.68 30.84 409.28 31.36 409.28 32.12ZM407.86 35.22C407.86 35.94 407.18 36.5 406.34 36.5C405.5 36.5 404.86 35.94 404.86 35.22C404.86 34.46 405.5 33.9 406.34 33.9C407.18 33.9 407.86 34.46 407.86 35.22ZM428.228 9.78C428.228 10.54 427.548 11.14 426.708 11.14C425.868 11.14 425.228 10.54 425.228 9.78C425.228 9.02 425.868 8.42 426.708 8.42C427.548 8.42 428.228 9.02 428.228 9.78ZM432.028 9.74C432.028 10.46 431.388 11.02 430.548 11.02C429.748 11.02 429.108 10.46 429.108 9.74C429.108 9.02 429.748 8.42 430.548 8.42C431.388 8.42 432.028 9.02 432.028 9.74ZM435.828 9.74C435.828 10.46 435.148 11.02 434.348 11.02C433.548 11.02 432.908 10.46 432.908 9.74C432.908 9.02 433.548 8.42 434.348 8.42C435.148 8.42 435.828 9.02 435.828 9.74ZM439.588 9.74C439.588 10.46 438.908 11.02 438.148 11.02C437.308 11.02 436.708 10.46 436.708 9.74C436.708 9.02 437.308 8.42 438.148 8.42C438.908 8.42 439.588 9.02 439.588 9.74ZM443.348 9.74C443.348 10.46 442.708 11.02 441.908 11.02C441.028 11.02 440.468 10.46 440.468 9.74C440.468 9.02 441.028 8.42 441.908 8.42C442.708 8.42 443.348 9.02 443.348 9.74ZM428.228 13.38C428.228 14.18 427.548 14.78 426.708 14.78C425.868 14.78 425.228 14.18 425.228 13.38C425.228 12.62 425.868 12.02 426.708 12.02C427.548 12.02 428.228 12.62 428.228 13.38ZM428.228 17.02C428.228 17.78 427.548 18.38 426.708 18.38C425.868 18.38 425.228 17.78 425.228 17.02C425.228 16.26 425.868 15.66 426.708 15.66C427.548 15.66 428.228 16.26 428.228 17.02ZM428.228 20.66C428.228 21.42 427.548 22.02 426.708 22.02C425.868 22.02 425.228 21.42 425.228 20.66C425.228 19.86 425.868 19.26 426.708 19.26C427.548 19.26 428.228 19.86 428.228 20.66ZM431.368 22.48C431.368 23.2 430.768 23.76 429.928 23.76C429.168 23.76 428.568 23.2 428.568 22.48C428.568 21.76 429.168 21.16 429.928 21.16C430.768 21.16 431.368 21.76 431.368 22.48ZM435.008 22.48C435.008 23.2 434.408 23.76 433.608 23.76C432.808 23.76 432.248 23.2 432.248 22.48C432.248 21.76 432.808 21.16 433.608 21.16C434.408 21.16 435.008 21.76 435.008 22.48ZM438.688 22.48C438.688 23.2 438.048 23.76 437.288 23.76C436.448 23.76 435.888 23.2 435.888 22.48C435.888 21.76 436.448 21.16 437.288 21.16C438.048 21.16 438.688 21.76 438.688 22.48ZM442.328 22.48C442.328 23.2 441.688 23.76 440.928 23.76C440.128 23.76 439.528 23.2 439.528 22.48C439.528 21.76 440.128 21.16 440.928 21.16C441.688 21.16 442.328 21.76 442.328 22.48ZM428.228 24.26C428.228 25.02 427.548 25.62 426.708 25.62C425.868 25.62 425.228 25.02 425.228 24.26C425.228 23.5 425.868 22.9 426.708 22.9C427.548 22.9 428.228 23.5 428.228 24.26ZM428.228 27.9C428.228 28.66 427.548 29.26 426.708 29.26C425.868 29.26 425.228 28.66 425.228 27.9C425.228 27.14 425.868 26.5 426.708 26.5C427.548 26.5 428.228 27.14 428.228 27.9ZM428.228 31.5C428.228 32.26 427.548 32.86 426.708 32.86C425.868 32.86 425.228 32.26 425.228 31.5C425.228 30.74 425.908 30.14 426.708 30.14C427.548 30.14 428.228 30.74 428.228 31.5ZM428.228 35.14C428.228 35.9 427.548 36.5 426.708 36.5C425.868 36.5 425.228 35.9 425.228 35.14C425.228 34.38 425.868 33.78 426.708 33.78C427.548 33.78 428.228 34.38 428.228 35.14ZM432.028 35.22C432.028 35.94 431.388 36.5 430.548 36.5C429.748 36.5 429.108 35.94 429.108 35.22C429.108 34.5 429.748 33.9 430.548 33.9C431.388 33.9 432.028 34.5 432.028 35.22ZM435.828 35.22C435.828 35.94 435.148 36.5 434.348 36.5C433.548 36.5 432.908 35.94 432.908 35.22C432.908 34.5 433.548 33.9 434.348 33.9C435.148 33.9 435.828 34.5 435.828 35.22ZM439.548 35.22C439.548 35.94 438.868 36.5 438.108 36.5C437.268 36.5 436.668 35.94 436.668 35.22C436.668 34.5 437.268 33.9 438.108 33.9C438.868 33.9 439.548 34.5 439.548 35.22ZM443.308 35.22C443.308 35.94 442.668 36.5 441.868 36.5C440.988 36.5 440.428 35.94 440.428 35.22C440.428 34.5 440.908 33.9 441.868 33.9C442.668 33.9 443.308 34.5 443.308 35.22ZM451.705 9.78C451.705 10.54 451.025 11.14 450.185 11.14C449.345 11.14 448.705 10.54 448.705 9.78C448.705 9.02 449.345 8.42 450.185 8.42C451.025 8.42 451.705 9.02 451.705 9.78ZM455.425 9.7C455.425 10.42 454.785 11.02 453.945 11.02C453.145 11.02 452.545 10.42 452.545 9.7C452.545 8.98 453.145 8.42 453.945 8.42C454.785 8.42 455.425 8.98 455.425 9.7ZM459.145 9.7C459.145 10.42 458.505 11.02 457.665 11.02C456.865 11.02 456.265 10.42 456.265 9.7C456.265 8.98 456.865 8.42 457.665 8.42C458.505 8.42 459.145 8.98 459.145 9.7ZM459.945 9.82C459.945 9.1 460.585 8.54 461.385 8.54C462.225 8.54 462.825 9.1 462.825 9.82C462.825 10.54 462.225 11.14 461.385 11.14C460.585 11.14 459.945 10.54 459.945 9.82ZM463.505 10.92C463.505 10.2 464.145 9.64 464.985 9.64C465.825 9.64 466.425 10.2 466.425 10.92C466.425 11.68 465.825 12.24 464.985 12.24C464.145 12.24 463.505 11.68 463.505 10.92ZM451.705 13.38C451.705 14.18 451.025 14.78 450.185 14.78C449.345 14.78 448.705 14.18 448.705 13.38C448.705 12.62 449.345 12.02 450.185 12.02C451.025 12.02 451.705 12.62 451.705 13.38ZM466.125 13.66C466.125 12.86 466.805 12.24 467.645 12.24C468.485 12.24 469.125 12.86 469.125 13.66C469.125 14.44 468.505 15.06 467.645 15.06C466.805 15.06 466.125 14.44 466.125 13.66ZM451.705 17.02C451.705 17.78 451.025 18.38 450.185 18.38C449.345 18.38 448.705 17.78 448.705 17.02C448.705 16.26 449.345 15.66 450.185 15.66C451.025 15.66 451.705 16.26 451.705 17.02ZM466.885 17.38C466.885 16.6 467.565 15.98 468.405 15.98C469.245 15.98 469.885 16.6 469.885 17.38C469.885 18.2 469.245 18.78 468.405 18.78C467.565 18.78 466.885 18.2 466.885 17.38ZM451.705 20.66C451.705 21.42 451.025 22.02 450.185 22.02C449.345 22.02 448.705 21.42 448.705 20.66C448.705 19.86 449.345 19.26 450.185 19.26C451.025 19.26 451.705 19.86 451.705 20.66ZM465.785 21C465.785 20.2 466.465 19.58 467.305 19.58C468.145 19.58 468.785 20.2 468.785 21C468.785 21.82 468.145 22.4 467.305 22.4C466.465 22.4 465.785 21.82 465.785 21ZM463.025 23.5C463.025 22.72 463.665 22.14 464.505 22.14C465.345 22.14 465.945 22.72 465.945 23.5C465.945 24.26 465.345 24.88 464.505 24.88C463.665 24.88 463.025 24.26 463.025 23.5ZM451.705 24.26C451.705 25.02 451.025 25.62 450.185 25.62C449.345 25.62 448.705 25.02 448.705 24.26C448.705 23.5 449.345 22.9 450.185 22.9C451.025 22.9 451.705 23.5 451.705 24.26ZM455.465 24.3C455.465 25.02 454.825 25.58 453.985 25.58C453.185 25.58 452.585 25.02 452.585 24.3C452.585 23.58 453.185 22.98 453.985 22.98C454.825 22.98 455.465 23.58 455.465 24.3ZM459.145 24.3C459.145 25.02 458.505 25.58 457.665 25.58C456.865 25.58 456.265 25.02 456.265 24.3C456.265 23.58 456.865 22.98 457.665 22.98C458.505 22.98 459.145 23.58 459.145 24.3ZM462.385 24.18C462.385 24.8 461.845 25.34 461.185 25.34C460.525 25.34 460.005 24.8 460.005 24.18C460.005 23.44 460.565 23 461.185 23C461.845 23 462.385 23.48 462.385 24.18ZM464.145 26.8C464.145 27.42 463.605 27.96 462.945 27.96C462.285 27.96 461.765 27.42 461.765 26.8C461.765 26.06 462.325 25.62 462.945 25.62C463.605 25.62 464.145 26.1 464.145 26.8ZM451.705 27.9C451.705 28.66 451.025 29.26 450.185 29.26C449.345 29.26 448.705 28.66 448.705 27.9C448.705 27.14 449.345 26.5 450.185 26.5C451.025 26.5 451.705 27.14 451.705 27.9ZM466.705 29.38C466.705 30.1 466.025 30.7 465.185 30.7C464.345 30.7 463.705 30.1 463.705 29.38C463.705 28.66 464.345 28.1 465.185 28.1C466.025 28.1 466.705 28.66 466.705 29.38ZM451.705 31.5C451.705 32.26 451.025 32.86 450.185 32.86C449.345 32.86 448.705 32.26 448.705 31.5C448.705 30.74 449.385 30.14 450.185 30.14C451.025 30.14 451.705 30.74 451.705 31.5ZM468.825 32.26C468.825 33.02 468.145 33.58 467.305 33.58C466.465 33.58 465.825 33.02 465.825 32.26C465.825 31.54 466.465 30.98 467.305 30.98C468.145 30.98 468.825 31.54 468.825 32.26ZM451.705 35.14C451.705 35.9 451.025 36.5 450.185 36.5C449.345 36.5 448.705 35.9 448.705 35.14C448.705 34.38 449.345 33.78 450.185 33.78C451.025 33.78 451.705 34.38 451.705 35.14ZM470.905 35.22C470.905 35.94 470.225 36.54 469.385 36.54C468.545 36.54 467.905 35.94 467.905 35.22C467.905 34.5 468.545 33.94 469.385 33.94C470.225 33.94 470.905 34.5 470.905 35.22ZM475.6 9.7C475.6 10.46 474.92 11.02 474.08 11.02C473.24 11.02 472.6 10.46 472.6 9.7C472.6 9.02 473.24 8.42 474.08 8.42C474.92 8.42 475.6 9.02 475.6 9.7ZM493.68 9.74C493.68 9.04 494.36 8.42 495.18 8.42C496 8.42 496.62 9.04 496.62 9.74C496.62 10.54 496 11.12 495.18 11.12C494.36 11.12 493.68 10.54 493.68 9.74ZM477.68 12.58C477.68 13.3 477 13.9 476.16 13.9C475.32 13.9 474.68 13.3 474.68 12.58C474.68 11.86 475.32 11.3 476.16 11.3C477 11.3 477.68 11.86 477.68 12.58ZM491.5 12.72C491.5 11.98 492.16 11.4 493 11.4C493.8 11.4 494.44 11.98 494.44 12.72C494.44 13.48 493.8 14.1 493 14.1C492.16 14.1 491.5 13.48 491.5 12.72ZM479.76 15.5C479.76 16.22 479.08 16.78 478.24 16.78C477.4 16.78 476.76 16.22 476.76 15.5C476.76 14.78 477.4 14.18 478.24 14.18C479.08 14.18 479.76 14.78 479.76 15.5ZM489.32 15.7C489.32 14.96 489.98 14.32 490.8 14.32C491.62 14.32 492.24 14.96 492.24 15.7C492.24 16.46 491.62 17.04 490.8 17.04C489.98 17.04 489.32 16.46 489.32 15.7ZM481.92 18.38C481.92 19.1 481.24 19.66 480.4 19.66C479.56 19.66 478.92 19.1 478.92 18.38C478.92 17.66 479.56 17.06 480.4 17.06C481.24 17.06 481.92 17.66 481.92 18.38ZM487.08 18.66C487.08 17.92 487.76 17.28 488.58 17.28C489.38 17.28 490.02 17.92 490.02 18.66C490.02 19.4 489.38 20 488.58 20C487.76 20 487.08 19.4 487.08 18.66ZM483.6 21.26C483.6 21.94 483 22.54 482.28 22.54C481.56 22.54 481 21.94 481 21.26C481 20.46 481.6 19.98 482.28 19.98C483 19.98 483.6 20.5 483.6 21.26ZM487.5 21.26C487.5 21.94 486.9 22.54 486.18 22.54C485.46 22.54 484.9 21.94 484.9 21.26C484.9 20.46 485.5 19.98 486.18 19.98C486.9 19.98 487.5 20.5 487.5 21.26ZM485.82 24.26C485.82 25.02 485.14 25.62 484.3 25.62C483.46 25.62 482.82 25.02 482.82 24.26C482.82 23.5 483.46 22.9 484.3 22.9C485.14 22.9 485.82 23.5 485.82 24.26ZM485.82 27.9C485.82 28.66 485.14 29.26 484.3 29.26C483.46 29.26 482.82 28.66 482.82 27.9C482.82 27.14 483.46 26.5 484.3 26.5C485.14 26.5 485.82 27.14 485.82 27.9ZM485.82 31.5C485.82 32.26 485.14 32.86 484.3 32.86C483.46 32.86 482.82 32.26 482.82 31.5C482.82 30.74 483.5 30.14 484.3 30.14C485.14 30.14 485.82 30.74 485.82 31.5ZM485.82 35.14C485.82 35.9 485.14 36.5 484.3 36.5C483.46 36.5 482.82 35.9 482.82 35.14C482.82 34.38 483.46 33.78 484.3 33.78C485.14 33.78 485.82 34.38 485.82 35.14Z" fill="#7F746D"/>
</svg>
