<svg width="213" height="20" viewBox="0 0 213 20" fill="none" xmlns="http://www.w3.org/2000/svg">
<circle cx="10" cy="10.0001" r="10" fill="#FAFAFA" fill-opacity="0.9"/>
<circle cx="21.0078" cy="10" r="10" fill="#FAFAFA" fill-opacity="0.75"/>
<circle cx="32.0156" cy="10" r="10" fill="#FAFAFA" fill-opacity="0.55"/>
<path d="M53.1834 4.65206C53.1834 4.94006 52.9274 5.18006 52.6074 5.18006C52.2714 5.18006 52.0314 4.94006 52.0314 4.65206C52.0314 4.36406 52.2714 4.14006 52.6074 4.14006C52.9274 4.14006 53.1834 4.36406 53.1834 4.65206ZM53.5674 4.65206C53.5674 4.36406 53.8234 4.14006 54.1434 4.14006C54.4794 4.14006 54.7194 4.36406 54.7194 4.65206C54.7194 4.94006 54.4794 5.18006 54.1434 5.18006C53.8234 5.18006 53.5674 4.94006 53.5674 4.65206ZM51.7114 5.08406C51.7114 5.38806 51.4554 5.62806 51.1194 5.62806C50.7834 5.62806 50.5434 5.38806 50.5434 5.08406C50.5434 4.79606 50.7834 4.57206 51.1194 4.57206C51.4554 4.57206 51.7114 4.79606 51.7114 5.08406ZM55.0394 5.11606C55.0394 4.82806 55.2954 4.60406 55.6314 4.60406C55.9674 4.60406 56.2074 4.82806 56.2074 5.11606C56.2074 5.42006 55.9674 5.66006 55.6314 5.66006C55.2954 5.66006 55.0394 5.42006 55.0394 5.11606ZM50.4954 5.99606C50.4954 6.30006 50.2234 6.54006 49.8874 6.54006C49.5514 6.54006 49.2954 6.30006 49.2954 5.99606C49.2954 5.69206 49.5514 5.45206 49.8874 5.45206C50.2234 5.45206 50.4954 5.69206 50.4954 5.99606ZM56.2554 6.06006C56.2554 5.75606 56.5274 5.51606 56.8634 5.51606C57.1994 5.51606 57.4554 5.75606 57.4554 6.06006C57.4554 6.36406 57.1994 6.60406 56.8634 6.60406C56.5274 6.60406 56.2554 6.36406 56.2554 6.06006ZM49.5994 7.18006C49.5994 7.46806 49.3114 7.72406 48.9914 7.72406C48.6714 7.72406 48.3994 7.48406 48.3994 7.18006C48.3994 6.87606 48.6554 6.63606 48.9914 6.63606C49.3274 6.63606 49.5994 6.87606 49.5994 7.18006ZM49.1194 8.54006C49.1194 8.82806 48.8474 9.08406 48.5114 9.08406C48.1754 9.08406 47.9194 8.82806 47.9194 8.54006C47.9194 8.23606 48.1754 7.99606 48.5114 7.99606C48.8474 7.99606 49.1194 8.23606 49.1194 8.54006ZM48.9594 9.94806C48.9594 10.2521 48.6874 10.4921 48.3514 10.4921C48.0154 10.4921 47.7594 10.2521 47.7594 9.94806C47.7594 9.64406 48.0154 9.40406 48.3514 9.40406C48.6874 9.40406 48.9594 9.64406 48.9594 9.94806ZM49.1194 11.3401C49.1194 11.6441 48.8474 11.8841 48.5114 11.8841C48.1754 11.8841 47.9194 11.6441 47.9194 11.3401C47.9194 11.0681 48.1754 10.8121 48.5114 10.8121C48.8474 10.8121 49.1194 11.0681 49.1194 11.3401ZM49.5994 12.7001C49.5994 12.9881 49.3274 13.2281 48.9914 13.2281C48.6554 13.2281 48.3994 12.9881 48.3994 12.7001C48.3994 12.3961 48.6714 12.1561 48.9914 12.1561C49.3114 12.1561 49.5994 12.4121 49.5994 12.7001ZM56.2554 13.7881C56.2554 13.4841 56.5274 13.2441 56.8634 13.2441C57.1994 13.2441 57.4554 13.4841 57.4554 13.7881C57.4554 14.0921 57.1994 14.3321 56.8634 14.3321C56.5274 14.3321 56.2554 14.0921 56.2554 13.7881ZM50.4954 13.8521C50.4954 14.1561 50.2234 14.3961 49.8874 14.3961C49.5514 14.3961 49.2954 14.1561 49.2954 13.8521C49.2954 13.5481 49.5514 13.3081 49.8874 13.3081C50.2234 13.3081 50.4954 13.5481 50.4954 13.8521ZM55.0394 14.7161C55.0394 14.4121 55.2954 14.1881 55.6314 14.1881C55.9674 14.1881 56.2074 14.4121 56.2074 14.7161C56.2074 15.0041 55.9674 15.2281 55.6314 15.2281C55.2954 15.2281 55.0394 15.0041 55.0394 14.7161ZM51.7114 14.7481C51.7114 15.0361 51.4554 15.2601 51.1194 15.2601C50.7834 15.2601 50.5434 15.0361 50.5434 14.7481C50.5434 14.4441 50.7834 14.2201 51.1194 14.2201C51.4554 14.2201 51.7114 14.4441 51.7114 14.7481ZM53.1834 15.1801C53.1834 15.4681 52.9274 15.6921 52.6074 15.6921C52.2714 15.6921 52.0314 15.4681 52.0314 15.1801C52.0314 14.8921 52.2714 14.6521 52.6074 14.6521C52.9274 14.6521 53.1834 14.8921 53.1834 15.1801ZM53.5674 15.1801C53.5674 14.8921 53.8234 14.6521 54.1434 14.6521C54.4794 14.6521 54.7194 14.8921 54.7194 15.1801C54.7194 15.4681 54.4794 15.6921 54.1434 15.6921C53.8234 15.6921 53.5674 15.4681 53.5674 15.1801ZM64.3553 4.65206C64.3553 4.94006 64.0993 5.18006 63.7793 5.18006C63.4433 5.18006 63.2033 4.94006 63.2033 4.65206C63.2033 4.36406 63.4433 4.14006 63.7793 4.14006C64.0993 4.14006 64.3553 4.36406 64.3553 4.65206ZM64.7393 4.65206C64.7393 4.36406 64.9953 4.14006 65.3153 4.14006C65.6513 4.14006 65.8913 4.36406 65.8913 4.65206C65.8913 4.94006 65.6513 5.18006 65.3153 5.18006C64.9953 5.18006 64.7393 4.94006 64.7393 4.65206ZM62.8833 5.08406C62.8833 5.38806 62.6273 5.62806 62.2913 5.62806C61.9553 5.62806 61.7153 5.38806 61.7153 5.08406C61.7153 4.79606 61.9553 4.57206 62.2913 4.57206C62.6273 4.57206 62.8833 4.79606 62.8833 5.08406ZM66.2113 5.08406C66.2113 4.79606 66.4673 4.57206 66.8033 4.57206C67.1393 4.57206 67.3793 4.79606 67.3793 5.08406C67.3793 5.38806 67.1393 5.62806 66.8033 5.62806C66.4673 5.62806 66.2113 5.38806 66.2113 5.08406ZM61.6673 5.99606C61.6673 6.30006 61.3953 6.54006 61.0593 6.54006C60.7233 6.54006 60.4673 6.30006 60.4673 5.99606C60.4673 5.69206 60.7233 5.45206 61.0593 5.45206C61.3953 5.45206 61.6673 5.69206 61.6673 5.99606ZM67.4273 5.99606C67.4273 5.69206 67.6993 5.45206 68.0353 5.45206C68.3713 5.45206 68.6273 5.69206 68.6273 5.99606C68.6273 6.30006 68.3713 6.54006 68.0353 6.54006C67.6993 6.54006 67.4273 6.30006 67.4273 5.99606ZM60.7713 7.18006C60.7713 7.46806 60.4833 7.72406 60.1633 7.72406C59.8433 7.72406 59.5713 7.48406 59.5713 7.18006C59.5713 6.87606 59.8273 6.63606 60.1633 6.63606C60.4993 6.63606 60.7713 6.87606 60.7713 7.18006ZM68.3233 7.18006C68.3233 6.87606 68.5953 6.63606 68.9313 6.63606C69.2673 6.63606 69.5233 6.87606 69.5233 7.18006C69.5233 7.48406 69.2513 7.72406 68.9313 7.72406C68.6113 7.72406 68.3233 7.48406 68.3233 7.18006ZM60.2913 8.54006C60.2913 8.82806 60.0193 9.08406 59.6833 9.08406C59.3473 9.08406 59.0913 8.82806 59.0913 8.54006C59.0913 8.23606 59.3473 7.99606 59.6833 7.99606C60.0193 7.99606 60.2913 8.23606 60.2913 8.54006ZM68.8033 8.54006C68.8033 8.23606 69.0753 7.99606 69.4113 7.99606C69.7473 7.99606 70.0033 8.23606 70.0033 8.54006C70.0033 8.82806 69.7473 9.08406 69.4113 9.08406C69.0753 9.08406 68.8033 8.82806 68.8033 8.54006ZM60.1313 9.94806C60.1313 10.2521 59.8593 10.4921 59.5233 10.4921C59.1873 10.4921 58.9313 10.2521 58.9313 9.94806C58.9313 9.64406 59.1873 9.40406 59.5233 9.40406C59.8593 9.40406 60.1313 9.64406 60.1313 9.94806ZM68.9633 9.94806C68.9633 9.64406 69.2353 9.40406 69.5713 9.40406C69.9073 9.40406 70.1633 9.64406 70.1633 9.94806C70.1633 10.2521 69.9073 10.4921 69.5713 10.4921C69.2353 10.4921 68.9633 10.2521 68.9633 9.94806ZM60.2913 11.3401C60.2913 11.6441 60.0193 11.8841 59.6833 11.8841C59.3473 11.8841 59.0913 11.6441 59.0913 11.3401C59.0913 11.0681 59.3473 10.8121 59.6833 10.8121C60.0193 10.8121 60.2913 11.0681 60.2913 11.3401ZM68.8033 11.3401C68.8033 11.0681 69.0753 10.8121 69.4113 10.8121C69.7473 10.8121 70.0033 11.0681 70.0033 11.3401C70.0033 11.6441 69.7473 11.8841 69.4113 11.8841C69.0753 11.8841 68.8033 11.6441 68.8033 11.3401ZM60.7713 12.7001C60.7713 12.9881 60.4993 13.2281 60.1633 13.2281C59.8273 13.2281 59.5713 12.9881 59.5713 12.7001C59.5713 12.3961 59.8433 12.1561 60.1633 12.1561C60.4833 12.1561 60.7713 12.4121 60.7713 12.7001ZM68.3233 12.7001C68.3233 12.3961 68.6113 12.1561 68.9313 12.1561C69.2513 12.1561 69.5233 12.3961 69.5233 12.7001C69.5233 12.9881 69.2673 13.2281 68.9313 13.2281C68.5953 13.2281 68.3233 12.9881 68.3233 12.7001ZM61.6673 13.8521C61.6673 14.1561 61.3953 14.3961 61.0593 14.3961C60.7233 14.3961 60.4673 14.1561 60.4673 13.8521C60.4673 13.5481 60.7233 13.3081 61.0593 13.3081C61.3953 13.3081 61.6673 13.5481 61.6673 13.8521ZM67.4273 13.8521C67.4273 13.5481 67.6993 13.3081 68.0353 13.3081C68.3713 13.3081 68.6273 13.5481 68.6273 13.8521C68.6273 14.1561 68.3713 14.3961 68.0353 14.3961C67.6993 14.3961 67.4273 14.1561 67.4273 13.8521ZM62.8833 14.7481C62.8833 15.0361 62.6273 15.2601 62.2913 15.2601C61.9553 15.2601 61.7153 15.0361 61.7153 14.7481C61.7153 14.4441 61.9553 14.2201 62.2913 14.2201C62.6273 14.2201 62.8833 14.4441 62.8833 14.7481ZM66.2113 14.7481C66.2113 14.4441 66.4673 14.2201 66.8033 14.2201C67.1393 14.2201 67.3793 14.4441 67.3793 14.7481C67.3793 15.0361 67.1393 15.2601 66.8033 15.2601C66.4673 15.2601 66.2113 15.0361 66.2113 14.7481ZM64.3553 15.1801C64.3553 15.4681 64.0993 15.6921 63.7793 15.6921C63.4433 15.6921 63.2033 15.4681 63.2033 15.1801C63.2033 14.8921 63.4433 14.6521 63.7793 14.6521C64.0993 14.6521 64.3553 14.8921 64.3553 15.1801ZM64.7393 15.1801C64.7393 14.8921 64.9953 14.6521 65.3153 14.6521C65.6513 14.6521 65.8913 14.8921 65.8913 15.1801C65.8913 15.4681 65.6513 15.6921 65.3153 15.6921C64.9953 15.6921 64.7393 15.4681 64.7393 15.1801ZM73.554 4.81206C73.554 5.11606 73.282 5.35606 72.946 5.35606C72.61 5.35606 72.354 5.11606 72.354 4.81206C72.354 4.50806 72.61 4.26806 72.946 4.26806C73.282 4.26806 73.554 4.50806 73.554 4.81206ZM82.082 4.79606C82.082 5.11606 81.81 5.35606 81.474 5.35606C81.138 5.35606 80.882 5.11606 80.882 4.79606C80.882 4.50806 81.138 4.26806 81.474 4.26806C81.81 4.26806 82.082 4.50806 82.082 4.79606ZM73.554 6.25206C73.554 6.57206 73.282 6.81206 72.946 6.81206C72.61 6.81206 72.354 6.57206 72.354 6.25206C72.354 5.94806 72.61 5.70806 72.946 5.70806C73.282 5.70806 73.554 5.94806 73.554 6.25206ZM82.082 6.26806C82.082 6.57206 81.794 6.81206 81.474 6.81206C81.138 6.81206 80.882 6.57206 80.882 6.26806C80.882 5.94806 81.138 5.70806 81.474 5.70806C81.81 5.70806 82.082 5.94806 82.082 6.26806ZM73.554 7.70806C73.554 8.01206 73.282 8.25206 72.946 8.25206C72.61 8.25206 72.354 8.01206 72.354 7.70806C72.354 7.40406 72.61 7.16406 72.946 7.16406C73.282 7.16406 73.554 7.40406 73.554 7.70806ZM82.082 7.70806C82.082 8.01206 81.81 8.25206 81.474 8.25206C81.138 8.25206 80.882 8.01206 80.882 7.70806C80.882 7.40406 81.138 7.16406 81.474 7.16406C81.81 7.16406 82.082 7.40406 82.082 7.70806ZM73.554 9.16406C73.554 9.46806 73.282 9.70806 72.946 9.70806C72.61 9.70806 72.354 9.46806 72.354 9.16406C72.354 8.84406 72.61 8.60406 72.946 8.60406C73.282 8.60406 73.554 8.84406 73.554 9.16406ZM82.082 9.16406C82.082 9.46806 81.81 9.69206 81.474 9.69206C81.138 9.69206 80.882 9.46806 80.882 9.16406C80.882 8.86006 81.138 8.60406 81.474 8.60406C81.81 8.60406 82.082 8.86006 82.082 9.16406ZM74.842 9.89206C74.842 10.1801 74.594 10.3961 74.274 10.3961C73.954 10.3961 73.714 10.1801 73.714 9.89206C73.714 9.60406 73.954 9.37206 74.274 9.37206C74.594 9.37206 74.842 9.60406 74.842 9.89206ZM76.306 9.89206C76.306 10.1801 76.05 10.3961 75.73 10.3961C75.418 10.3961 75.178 10.1801 75.178 9.89206C75.178 9.60406 75.418 9.37206 75.73 9.37206C76.05 9.37206 76.306 9.60406 76.306 9.89206ZM77.778 9.89206C77.778 10.1801 77.53 10.3961 77.21 10.3961C76.89 10.3961 76.658 10.1801 76.658 9.89206C76.658 9.60406 76.89 9.37206 77.21 9.37206C77.53 9.37206 77.778 9.60406 77.778 9.89206ZM79.226 9.89206C79.226 10.1801 78.97 10.3961 78.674 10.3961C78.354 10.3961 78.114 10.1801 78.114 9.89206C78.114 9.60406 78.354 9.37206 78.674 9.37206C78.97 9.37206 79.226 9.60406 79.226 9.89206ZM80.698 9.89206C80.698 10.1801 80.45 10.3961 80.13 10.3961C79.794 10.3961 79.578 10.1801 79.578 9.89206C79.578 9.60406 79.762 9.37206 80.13 9.37206C80.45 9.37206 80.698 9.60406 80.698 9.89206ZM82.082 10.6041C82.082 10.9081 81.81 11.1641 81.474 11.1641C81.138 11.1641 80.882 10.9081 80.882 10.6041C80.882 10.3001 81.138 10.0441 81.474 10.0441C81.81 10.0441 82.082 10.3001 82.082 10.6041ZM73.554 10.6041C73.554 10.9081 73.282 11.1481 72.946 11.1481C72.61 11.1481 72.354 10.9081 72.354 10.6041C72.354 10.3001 72.61 10.0601 72.946 10.0601C73.282 10.0601 73.554 10.3001 73.554 10.6041ZM73.554 12.0601C73.554 12.3641 73.282 12.6041 72.946 12.6041C72.61 12.6041 72.354 12.3641 72.354 12.0601C72.354 11.7561 72.61 11.5001 72.946 11.5001C73.282 11.5001 73.554 11.7561 73.554 12.0601ZM82.082 12.0441C82.082 12.3481 81.81 12.6041 81.474 12.6041C81.138 12.6041 80.882 12.3481 80.882 12.0441C80.882 11.7561 81.138 11.5161 81.474 11.5161C81.81 11.5161 82.082 11.7561 82.082 12.0441ZM73.554 13.5001C73.554 13.8041 73.282 14.0441 72.946 14.0441C72.61 14.0441 72.354 13.8041 72.354 13.5001C72.354 13.1961 72.626 12.9561 72.946 12.9561C73.282 12.9561 73.554 13.1961 73.554 13.5001ZM82.082 13.5001C82.082 13.8041 81.81 14.0601 81.474 14.0601C81.138 14.0601 80.882 13.8041 80.882 13.5001C80.882 13.1961 81.138 12.9561 81.474 12.9561C81.81 12.9561 82.082 13.1961 82.082 13.5001ZM73.554 14.9561C73.554 15.2601 73.282 15.5001 72.946 15.5001C72.61 15.5001 72.354 15.2601 72.354 14.9561C72.354 14.6521 72.61 14.4121 72.946 14.4121C73.282 14.4121 73.554 14.6521 73.554 14.9561ZM82.082 14.9401C82.082 15.2601 81.81 15.5001 81.474 15.5001C81.138 15.5001 80.882 15.2601 80.882 14.9401C80.882 14.6361 81.138 14.4121 81.474 14.4121C81.81 14.4121 82.082 14.6361 82.082 14.9401ZM89.699 4.65206C89.699 4.94006 89.443 5.18006 89.123 5.18006C88.787 5.18006 88.547 4.94006 88.547 4.65206C88.547 4.36406 88.787 4.14006 89.123 4.14006C89.443 4.14006 89.699 4.36406 89.699 4.65206ZM90.083 4.65206C90.083 4.36406 90.339 4.14006 90.659 4.14006C90.995 4.14006 91.235 4.36406 91.235 4.65206C91.235 4.94006 90.995 5.18006 90.659 5.18006C90.339 5.18006 90.083 4.94006 90.083 4.65206ZM88.227 5.08406C88.227 5.38806 87.971 5.62806 87.635 5.62806C87.299 5.62806 87.059 5.38806 87.059 5.08406C87.059 4.79606 87.299 4.57206 87.635 4.57206C87.971 4.57206 88.227 4.79606 88.227 5.08406ZM91.555 5.08406C91.555 4.79606 91.811 4.57206 92.147 4.57206C92.483 4.57206 92.723 4.79606 92.723 5.08406C92.723 5.38806 92.483 5.62806 92.147 5.62806C91.811 5.62806 91.555 5.38806 91.555 5.08406ZM87.011 5.99606C87.011 6.30006 86.739 6.54006 86.403 6.54006C86.067 6.54006 85.811 6.30006 85.811 5.99606C85.811 5.69206 86.067 5.45206 86.403 5.45206C86.739 5.45206 87.011 5.69206 87.011 5.99606ZM92.771 5.99606C92.771 5.69206 93.043 5.45206 93.379 5.45206C93.715 5.45206 93.971 5.69206 93.971 5.99606C93.971 6.30006 93.715 6.54006 93.379 6.54006C93.043 6.54006 92.771 6.30006 92.771 5.99606ZM86.115 7.18006C86.115 7.46806 85.827 7.72406 85.507 7.72406C85.187 7.72406 84.915 7.48406 84.915 7.18006C84.915 6.87606 85.171 6.63606 85.507 6.63606C85.843 6.63606 86.115 6.87606 86.115 7.18006ZM93.667 7.18006C93.667 6.87606 93.939 6.63606 94.275 6.63606C94.611 6.63606 94.867 6.87606 94.867 7.18006C94.867 7.48406 94.595 7.72406 94.275 7.72406C93.955 7.72406 93.667 7.48406 93.667 7.18006ZM85.635 8.54006C85.635 8.82806 85.363 9.08406 85.027 9.08406C84.691 9.08406 84.435 8.82806 84.435 8.54006C84.435 8.23606 84.691 7.99606 85.027 7.99606C85.363 7.99606 85.635 8.23606 85.635 8.54006ZM94.147 8.54006C94.147 8.23606 94.419 7.99606 94.755 7.99606C95.091 7.99606 95.347 8.23606 95.347 8.54006C95.347 8.82806 95.091 9.08406 94.755 9.08406C94.419 9.08406 94.147 8.82806 94.147 8.54006ZM85.475 9.94806C85.475 10.2521 85.203 10.4921 84.867 10.4921C84.531 10.4921 84.275 10.2521 84.275 9.94806C84.275 9.64406 84.531 9.40406 84.867 9.40406C85.203 9.40406 85.475 9.64406 85.475 9.94806ZM94.307 9.94806C94.307 9.64406 94.579 9.40406 94.915 9.40406C95.251 9.40406 95.507 9.64406 95.507 9.94806C95.507 10.2521 95.251 10.4921 94.915 10.4921C94.579 10.4921 94.307 10.2521 94.307 9.94806ZM85.635 11.3401C85.635 11.6441 85.363 11.8841 85.027 11.8841C84.691 11.8841 84.435 11.6441 84.435 11.3401C84.435 11.0681 84.691 10.8121 85.027 10.8121C85.363 10.8121 85.635 11.0681 85.635 11.3401ZM94.147 11.3401C94.147 11.0681 94.419 10.8121 94.755 10.8121C95.091 10.8121 95.347 11.0681 95.347 11.3401C95.347 11.6441 95.091 11.8841 94.755 11.8841C94.419 11.8841 94.147 11.6441 94.147 11.3401ZM86.115 12.7001C86.115 12.9881 85.843 13.2281 85.507 13.2281C85.171 13.2281 84.915 12.9881 84.915 12.7001C84.915 12.3961 85.187 12.1561 85.507 12.1561C85.827 12.1561 86.115 12.4121 86.115 12.7001ZM93.667 12.7001C93.667 12.3961 93.955 12.1561 94.275 12.1561C94.595 12.1561 94.867 12.3961 94.867 12.7001C94.867 12.9881 94.611 13.2281 94.275 13.2281C93.939 13.2281 93.667 12.9881 93.667 12.7001ZM87.011 13.8521C87.011 14.1561 86.739 14.3961 86.403 14.3961C86.067 14.3961 85.811 14.1561 85.811 13.8521C85.811 13.5481 86.067 13.3081 86.403 13.3081C86.739 13.3081 87.011 13.5481 87.011 13.8521ZM92.771 13.8521C92.771 13.5481 93.043 13.3081 93.379 13.3081C93.715 13.3081 93.971 13.5481 93.971 13.8521C93.971 14.1561 93.715 14.3961 93.379 14.3961C93.043 14.3961 92.771 14.1561 92.771 13.8521ZM88.227 14.7481C88.227 15.0361 87.971 15.2601 87.635 15.2601C87.299 15.2601 87.059 15.0361 87.059 14.7481C87.059 14.4441 87.299 14.2201 87.635 14.2201C87.971 14.2201 88.227 14.4441 88.227 14.7481ZM91.555 14.7481C91.555 14.4441 91.811 14.2201 92.147 14.2201C92.483 14.2201 92.723 14.4441 92.723 14.7481C92.723 15.0361 92.483 15.2601 92.147 15.2601C91.811 15.2601 91.555 15.0361 91.555 14.7481ZM89.699 15.1801C89.699 15.4681 89.443 15.6921 89.123 15.6921C88.787 15.6921 88.547 15.4681 88.547 15.1801C88.547 14.8921 88.787 14.6521 89.123 14.6521C89.443 14.6521 89.699 14.8921 89.699 15.1801ZM90.083 15.1801C90.083 14.8921 90.339 14.6521 90.659 14.6521C90.995 14.6521 91.235 14.8921 91.235 15.1801C91.235 15.4681 90.995 15.6921 90.659 15.6921C90.339 15.6921 90.083 15.4681 90.083 15.1801ZM98.8978 4.81206C98.8978 5.11606 98.6258 5.35606 98.2898 5.35606C97.9538 5.35606 97.6978 5.11606 97.6978 4.81206C97.6978 4.50806 97.9538 4.26806 98.2898 4.26806C98.6258 4.26806 98.8978 4.50806 98.8978 4.81206ZM100.386 4.78006C100.386 5.06806 100.13 5.30806 99.7938 5.30806C99.4738 5.30806 99.2338 5.06806 99.2338 4.78006C99.2338 4.49206 99.4738 4.26806 99.7938 4.26806C100.13 4.26806 100.386 4.49206 100.386 4.78006ZM101.874 4.78006C101.874 5.06806 101.618 5.30806 101.282 5.30806C100.962 5.30806 100.722 5.06806 100.722 4.78006C100.722 4.49206 100.962 4.26806 101.282 4.26806C101.618 4.26806 101.874 4.49206 101.874 4.78006ZM102.194 4.82806C102.194 4.54006 102.45 4.31606 102.77 4.31606C103.106 4.31606 103.346 4.54006 103.346 4.82806C103.346 5.11606 103.106 5.35606 102.77 5.35606C102.45 5.35606 102.194 5.11606 102.194 4.82806ZM103.618 5.26806C103.618 4.98006 103.874 4.75606 104.21 4.75606C104.546 4.75606 104.786 4.98006 104.786 5.26806C104.786 5.57206 104.546 5.79606 104.21 5.79606C103.874 5.79606 103.618 5.57206 103.618 5.26806ZM98.8978 6.25206C98.8978 6.57206 98.6258 6.81206 98.2898 6.81206C97.9538 6.81206 97.6978 6.57206 97.6978 6.25206C97.6978 5.94806 97.9538 5.70806 98.2898 5.70806C98.6258 5.70806 98.8978 5.94806 98.8978 6.25206ZM104.666 6.36406C104.666 6.04406 104.938 5.79606 105.274 5.79606C105.61 5.79606 105.866 6.04406 105.866 6.36406C105.866 6.67606 105.618 6.92406 105.274 6.92406C104.938 6.92406 104.666 6.67606 104.666 6.36406ZM98.8978 7.70806C98.8978 8.01206 98.6258 8.25206 98.2898 8.25206C97.9538 8.25206 97.6978 8.01206 97.6978 7.70806C97.6978 7.40406 97.9538 7.16406 98.2898 7.16406C98.6258 7.16406 98.8978 7.40406 98.8978 7.70806ZM104.97 7.85206C104.97 7.54006 105.242 7.29206 105.578 7.29206C105.914 7.29206 106.17 7.54006 106.17 7.85206C106.17 8.18006 105.914 8.41206 105.578 8.41206C105.242 8.41206 104.97 8.18006 104.97 7.85206ZM98.8978 9.16406C98.8978 9.46806 98.6258 9.70806 98.2898 9.70806C97.9538 9.70806 97.6978 9.46806 97.6978 9.16406C97.6978 8.84406 97.9538 8.60406 98.2898 8.60406C98.6258 8.60406 98.8978 8.84406 98.8978 9.16406ZM104.53 9.30006C104.53 8.98006 104.802 8.73206 105.138 8.73206C105.474 8.73206 105.73 8.98006 105.73 9.30006C105.73 9.62806 105.474 9.86006 105.138 9.86006C104.802 9.86006 104.53 9.62806 104.53 9.30006ZM103.426 10.3001C103.426 9.98806 103.682 9.75606 104.018 9.75606C104.354 9.75606 104.594 9.98806 104.594 10.3001C104.594 10.6041 104.354 10.8521 104.018 10.8521C103.682 10.8521 103.426 10.6041 103.426 10.3001ZM98.8978 10.6041C98.8978 10.9081 98.6258 11.1481 98.2898 11.1481C97.9538 11.1481 97.6978 10.9081 97.6978 10.6041C97.6978 10.3001 97.9538 10.0601 98.2898 10.0601C98.6258 10.0601 98.8978 10.3001 98.8978 10.6041ZM100.402 10.6201C100.402 10.9081 100.146 11.1321 99.8098 11.1321C99.4898 11.1321 99.2498 10.9081 99.2498 10.6201C99.2498 10.3321 99.4898 10.0921 99.8098 10.0921C100.146 10.0921 100.402 10.3321 100.402 10.6201ZM101.874 10.6201C101.874 10.9081 101.618 11.1321 101.282 11.1321C100.962 11.1321 100.722 10.9081 100.722 10.6201C100.722 10.3321 100.962 10.0921 101.282 10.0921C101.618 10.0921 101.874 10.3321 101.874 10.6201ZM103.17 10.5721C103.17 10.8201 102.954 11.0361 102.69 11.0361C102.426 11.0361 102.218 10.8201 102.218 10.5721C102.218 10.2761 102.442 10.1001 102.69 10.1001C102.954 10.1001 103.17 10.2921 103.17 10.5721ZM103.874 11.6201C103.874 11.8681 103.658 12.0841 103.394 12.0841C103.13 12.0841 102.922 11.8681 102.922 11.6201C102.922 11.3241 103.146 11.1481 103.394 11.1481C103.658 11.1481 103.874 11.3401 103.874 11.6201ZM98.8978 12.0601C98.8978 12.3641 98.6258 12.6041 98.2898 12.6041C97.9538 12.6041 97.6978 12.3641 97.6978 12.0601C97.6978 11.7561 97.9538 11.5001 98.2898 11.5001C98.6258 11.5001 98.8978 11.7561 98.8978 12.0601ZM104.898 12.6521C104.898 12.9401 104.626 13.1801 104.29 13.1801C103.954 13.1801 103.698 12.9401 103.698 12.6521C103.698 12.3641 103.954 12.1401 104.29 12.1401C104.626 12.1401 104.898 12.3641 104.898 12.6521ZM98.8978 13.5001C98.8978 13.8041 98.6258 14.0441 98.2898 14.0441C97.9538 14.0441 97.6978 13.8041 97.6978 13.5001C97.6978 13.1961 97.9698 12.9561 98.2898 12.9561C98.6258 12.9561 98.8978 13.1961 98.8978 13.5001ZM105.746 13.8041C105.746 14.1081 105.474 14.3321 105.138 14.3321C104.802 14.3321 104.546 14.1081 104.546 13.8041C104.546 13.5161 104.802 13.2921 105.138 13.2921C105.474 13.2921 105.746 13.5161 105.746 13.8041ZM98.8978 14.9561C98.8978 15.2601 98.6258 15.5001 98.2898 15.5001C97.9538 15.5001 97.6978 15.2601 97.6978 14.9561C97.6978 14.6521 97.9538 14.4121 98.2898 14.4121C98.6258 14.4121 98.8978 14.6521 98.8978 14.9561ZM106.578 14.9881C106.578 15.2761 106.306 15.5161 105.97 15.5161C105.634 15.5161 105.378 15.2761 105.378 14.9881C105.378 14.7001 105.634 14.4761 105.97 14.4761C106.306 14.4761 106.578 14.7001 106.578 14.9881ZM108.196 4.81206C108.196 5.11606 107.924 5.35606 107.588 5.35606C107.252 5.35606 106.996 5.11606 106.996 4.81206C106.996 4.50806 107.252 4.26806 107.588 4.26806C107.924 4.26806 108.196 4.50806 108.196 4.81206ZM109.748 4.81206C109.748 5.11606 109.476 5.35606 109.14 5.35606C108.804 5.35606 108.548 5.11606 108.548 4.81206C108.548 4.50806 108.804 4.26806 109.14 4.26806C109.476 4.26806 109.748 4.50806 109.748 4.81206ZM111.268 4.79606C111.268 5.08406 111.012 5.30806 110.676 5.30806C110.356 5.30806 110.1 5.08406 110.1 4.79606C110.1 4.50806 110.356 4.26806 110.676 4.26806C111.012 4.26806 111.268 4.50806 111.268 4.79606ZM112.788 4.79606C112.788 5.08406 112.516 5.30806 112.196 5.30806C111.876 5.30806 111.62 5.08406 111.62 4.79606C111.62 4.50806 111.876 4.26806 112.196 4.26806C112.516 4.26806 112.788 4.50806 112.788 4.79606ZM114.292 4.79606C114.292 5.08406 114.02 5.30806 113.716 5.30806C113.38 5.30806 113.14 5.08406 113.14 4.79606C113.14 4.50806 113.38 4.26806 113.716 4.26806C114.02 4.26806 114.292 4.50806 114.292 4.79606ZM115.796 4.79606C115.796 5.08406 115.54 5.30806 115.22 5.30806C114.868 5.30806 114.644 5.08406 114.644 4.79606C114.644 4.50806 114.868 4.26806 115.22 4.26806C115.54 4.26806 115.796 4.50806 115.796 4.79606ZM112.044 6.02006C112.044 6.34806 111.764 6.59606 111.428 6.59606C111.092 6.59606 110.836 6.34806 110.836 6.02006C110.836 5.70806 111.092 5.46006 111.428 5.46006C111.764 5.46006 112.044 5.70806 112.044 6.02006ZM112.044 7.50806C112.044 7.82006 111.764 8.06806 111.428 8.06806C111.092 8.06806 110.836 7.82006 110.836 7.50806C110.836 7.19606 111.092 6.95606 111.428 6.95606C111.764 6.95606 112.044 7.19606 112.044 7.50806ZM112.044 9.00406C112.044 9.31606 111.764 9.55606 111.428 9.55606C111.092 9.55606 110.836 9.31606 110.836 9.00406C110.836 8.67606 111.092 8.42806 111.428 8.42806C111.764 8.42806 112.044 8.67606 112.044 9.00406ZM112.044 10.4761C112.044 10.7881 111.764 11.0361 111.428 11.0361C111.092 11.0361 110.836 10.7881 110.836 10.4761C110.836 10.1641 111.092 9.91606 111.428 9.91606C111.764 9.91606 112.044 10.1641 112.044 10.4761ZM112.044 11.9721C112.044 12.2761 111.764 12.5241 111.428 12.5241C111.092 12.5241 110.836 12.2761 110.836 11.9721C110.836 11.6601 111.092 11.3961 111.428 11.3961C111.764 11.3961 112.044 11.6601 112.044 11.9721ZM112.044 13.4441C112.044 13.7561 111.764 14.0041 111.428 14.0041C111.092 14.0041 110.836 13.7561 110.836 13.4441C110.836 13.1321 111.108 12.8841 111.428 12.8841C111.764 12.8841 112.044 13.1321 112.044 13.4441ZM112.044 14.9401C112.044 15.2521 111.764 15.5001 111.428 15.5001C111.092 15.5001 110.836 15.2521 110.836 14.9401C110.836 14.6281 111.092 14.3881 111.428 14.3881C111.764 14.3881 112.044 14.6281 112.044 14.9401ZM122.617 4.81206C122.617 5.11606 122.345 5.35606 122.009 5.35606C121.673 5.35606 121.417 5.11606 121.417 4.81206C121.417 4.50806 121.673 4.26806 122.009 4.26806C122.345 4.26806 122.617 4.50806 122.617 4.81206ZM124.137 4.79606C124.137 5.08406 123.881 5.30806 123.545 5.30806C123.225 5.30806 122.969 5.08406 122.969 4.79606C122.969 4.50806 123.225 4.26806 123.545 4.26806C123.881 4.26806 124.137 4.50806 124.137 4.79606ZM125.657 4.79606C125.657 5.08406 125.385 5.30806 125.065 5.30806C124.745 5.30806 124.489 5.08406 124.489 4.79606C124.489 4.50806 124.745 4.26806 125.065 4.26806C125.385 4.26806 125.657 4.50806 125.657 4.79606ZM126.009 4.81206C126.009 4.52406 126.249 4.30006 126.569 4.30006C126.905 4.30006 127.129 4.52406 127.129 4.81206C127.129 5.10006 126.905 5.34006 126.569 5.34006C126.249 5.34006 126.009 5.10006 126.009 4.81206ZM127.401 5.18006C127.401 4.89206 127.641 4.66806 127.961 4.66806C128.297 4.66806 128.521 4.89206 128.521 5.18006C128.521 5.46806 128.297 5.70806 127.961 5.70806C127.641 5.70806 127.401 5.46806 127.401 5.18006ZM128.601 5.94806C128.601 5.66006 128.841 5.43606 129.177 5.43606C129.513 5.43606 129.737 5.66006 129.737 5.94806C129.737 6.25206 129.513 6.49206 129.177 6.49206C128.841 6.49206 128.601 6.25206 128.601 5.94806ZM122.617 6.25206C122.617 6.57206 122.345 6.81206 122.009 6.81206C121.673 6.81206 121.417 6.57206 121.417 6.25206C121.417 5.94806 121.673 5.70806 122.009 5.70806C122.345 5.70806 122.617 5.94806 122.617 6.25206ZM129.481 7.10006C129.481 6.79606 129.753 6.55606 130.089 6.55606C130.425 6.55606 130.681 6.79606 130.681 7.10006C130.681 7.40406 130.409 7.64406 130.089 7.64406C129.753 7.64406 129.481 7.40406 129.481 7.10006ZM122.617 7.70806C122.617 8.01206 122.345 8.25206 122.009 8.25206C121.673 8.25206 121.417 8.01206 121.417 7.70806C121.417 7.40406 121.673 7.16406 122.009 7.16406C122.345 7.16406 122.617 7.40406 122.617 7.70806ZM129.977 8.44406C129.977 8.15606 130.249 7.90006 130.585 7.90006C130.921 7.90006 131.177 8.14006 131.177 8.44406C131.177 8.74806 130.921 9.00406 130.585 9.00406C130.249 9.00406 129.977 8.74806 129.977 8.44406ZM122.617 9.16406C122.617 9.46806 122.345 9.70806 122.009 9.70806C121.673 9.70806 121.417 9.46806 121.417 9.16406C121.417 8.84406 121.673 8.60406 122.009 8.60406C122.345 8.60406 122.617 8.84406 122.617 9.16406ZM130.153 9.88406C130.153 9.58006 130.425 9.34006 130.761 9.34006C131.097 9.34006 131.353 9.58006 131.353 9.88406C131.353 10.1881 131.097 10.4281 130.761 10.4281C130.425 10.4281 130.153 10.1881 130.153 9.88406ZM122.617 10.6041C122.617 10.9081 122.345 11.1481 122.009 11.1481C121.673 11.1481 121.417 10.9081 121.417 10.6041C121.417 10.3001 121.673 10.0601 122.009 10.0601C122.345 10.0601 122.617 10.3001 122.617 10.6041ZM129.977 11.3241C129.977 11.0201 130.249 10.7641 130.585 10.7641C130.921 10.7641 131.177 11.0201 131.177 11.3241C131.177 11.6281 130.921 11.8681 130.585 11.8681C130.249 11.8681 129.977 11.6281 129.977 11.3241ZM122.617 12.0601C122.617 12.3641 122.345 12.6041 122.009 12.6041C121.673 12.6041 121.417 12.3641 121.417 12.0601C121.417 11.7561 121.673 11.5001 122.009 11.5001C122.345 11.5001 122.617 11.7561 122.617 12.0601ZM129.481 12.6681C129.481 12.3641 129.753 12.1241 130.089 12.1241C130.409 12.1241 130.681 12.3641 130.681 12.6681C130.681 12.9721 130.425 13.2121 130.089 13.2121C129.753 13.2121 129.481 12.9721 129.481 12.6681ZM122.617 13.5001C122.617 13.8041 122.345 14.0441 122.009 14.0441C121.673 14.0441 121.417 13.8041 121.417 13.5001C121.417 13.1961 121.689 12.9561 122.009 12.9561C122.345 12.9561 122.617 13.1961 122.617 13.5001ZM128.601 13.8041C128.601 13.5001 128.841 13.2601 129.177 13.2601C129.513 13.2601 129.737 13.5001 129.737 13.8041C129.737 14.0921 129.513 14.3161 129.177 14.3161C128.841 14.3161 128.601 14.0921 128.601 13.8041ZM127.433 14.6041C127.433 14.3161 127.673 14.0761 127.993 14.0761C128.329 14.0761 128.553 14.3161 128.553 14.6041C128.553 14.8921 128.329 15.1161 127.993 15.1161C127.673 15.1161 127.433 14.8921 127.433 14.6041ZM122.617 14.9561C122.617 15.2601 122.345 15.5001 122.009 15.5001C121.673 15.5001 121.417 15.2601 121.417 14.9561C121.417 14.6521 121.673 14.4121 122.009 14.4121C122.345 14.4121 122.617 14.6521 122.617 14.9561ZM126.057 14.9561C126.057 14.6681 126.297 14.4281 126.617 14.4281C126.953 14.4281 127.177 14.6681 127.177 14.9561C127.177 15.2441 126.953 15.4681 126.617 15.4681C126.297 15.4681 126.057 15.2441 126.057 14.9561ZM124.137 14.9881C124.137 15.2761 123.881 15.5001 123.545 15.5001C123.225 15.5001 122.969 15.2761 122.969 14.9881C122.969 14.7001 123.225 14.4601 123.545 14.4601C123.881 14.4601 124.137 14.7001 124.137 14.9881ZM125.657 14.9881C125.657 15.2761 125.385 15.5001 125.065 15.5001C124.745 15.5001 124.489 15.2761 124.489 14.9881C124.489 14.7001 124.745 14.4601 125.065 14.4601C125.385 14.4601 125.657 14.7001 125.657 14.9881ZM134.648 4.81206C134.648 5.11606 134.376 5.35606 134.04 5.35606C133.704 5.35606 133.448 5.11606 133.448 4.81206C133.448 4.50806 133.704 4.26806 134.04 4.26806C134.376 4.26806 134.648 4.50806 134.648 4.81206ZM134.648 6.25206C134.648 6.57206 134.376 6.81206 134.04 6.81206C133.704 6.81206 133.448 6.57206 133.448 6.25206C133.448 5.94806 133.704 5.70806 134.04 5.70806C134.376 5.70806 134.648 5.94806 134.648 6.25206ZM134.648 7.70806C134.648 8.01206 134.376 8.25206 134.04 8.25206C133.704 8.25206 133.448 8.01206 133.448 7.70806C133.448 7.40406 133.704 7.16406 134.04 7.16406C134.376 7.16406 134.648 7.40406 134.648 7.70806ZM134.648 9.16406C134.648 9.46806 134.376 9.70806 134.04 9.70806C133.704 9.70806 133.448 9.46806 133.448 9.16406C133.448 8.84406 133.704 8.60406 134.04 8.60406C134.376 8.60406 134.648 8.84406 134.648 9.16406ZM134.648 10.6041C134.648 10.9081 134.376 11.1481 134.04 11.1481C133.704 11.1481 133.448 10.9081 133.448 10.6041C133.448 10.3001 133.704 10.0601 134.04 10.0601C134.376 10.0601 134.648 10.3001 134.648 10.6041ZM134.648 12.0601C134.648 12.3641 134.376 12.6041 134.04 12.6041C133.704 12.6041 133.448 12.3641 133.448 12.0601C133.448 11.7561 133.704 11.5001 134.04 11.5001C134.376 11.5001 134.648 11.7561 134.648 12.0601ZM134.648 13.5001C134.648 13.8041 134.376 14.0441 134.04 14.0441C133.704 14.0441 133.448 13.8041 133.448 13.5001C133.448 13.1961 133.72 12.9561 134.04 12.9561C134.376 12.9561 134.648 13.1961 134.648 13.5001ZM134.648 14.9561C134.648 15.2601 134.376 15.5001 134.04 15.5001C133.704 15.5001 133.448 15.2601 133.448 14.9561C133.448 14.6521 133.704 14.4121 134.04 14.4121C134.376 14.4121 134.648 14.6521 134.648 14.9561ZM141.093 4.65206C141.093 4.94006 140.837 5.18006 140.517 5.18006C140.181 5.18006 139.941 4.94006 139.941 4.65206C139.941 4.36406 140.181 4.14006 140.517 4.14006C140.837 4.14006 141.093 4.36406 141.093 4.65206ZM141.445 4.65206C141.445 4.36406 141.701 4.14006 142.021 4.14006C142.357 4.14006 142.597 4.36406 142.597 4.65206C142.597 4.94006 142.357 5.18006 142.021 5.18006C141.701 5.18006 141.445 4.94006 141.445 4.65206ZM139.653 5.05206C139.653 5.35606 139.397 5.59606 139.061 5.59606C138.725 5.59606 138.485 5.35606 138.485 5.05206C138.485 4.76406 138.725 4.54006 139.061 4.54006C139.397 4.54006 139.653 4.76406 139.653 5.05206ZM142.869 5.05206C142.869 4.76406 143.125 4.54006 143.461 4.54006C143.797 4.54006 144.037 4.76406 144.037 5.05206C144.037 5.35606 143.797 5.59606 143.461 5.59606C143.125 5.59606 142.869 5.35606 142.869 5.05206ZM143.989 6.01206C143.989 5.70806 144.261 5.46806 144.597 5.46806C144.933 5.46806 145.189 5.70806 145.189 6.01206C145.189 6.31606 144.933 6.55606 144.597 6.55606C144.261 6.55606 143.989 6.31606 143.989 6.01206ZM138.565 6.04406C138.565 6.34806 138.293 6.58806 137.957 6.58806C137.621 6.58806 137.365 6.34806 137.365 6.04406C137.365 5.74006 137.621 5.50006 137.957 5.50006C138.293 5.50006 138.565 5.74006 138.565 6.04406ZM138.213 7.49206C138.213 7.79606 137.941 8.03606 137.605 8.03606C137.285 8.03606 137.013 7.79606 137.013 7.49206C137.013 7.18806 137.269 6.94806 137.605 6.94806C137.941 6.94806 138.213 7.18806 138.213 7.49206ZM138.869 8.83606C138.869 9.14006 138.597 9.39606 138.261 9.39606C137.925 9.39606 137.669 9.14006 137.669 8.83606C137.669 8.53206 137.925 8.29206 138.261 8.29206C138.597 8.29206 138.869 8.53206 138.869 8.83606ZM140.293 9.39606C140.293 9.70006 140.037 9.94006 139.701 9.94006C139.365 9.94006 139.125 9.70006 139.125 9.39606C139.125 9.10806 139.365 8.88406 139.701 8.88406C140.037 8.88406 140.293 9.10806 140.293 9.39606ZM141.869 9.57206C141.869 9.87606 141.613 10.1161 141.277 10.1161C140.941 10.1161 140.701 9.87606 140.701 9.57206C140.701 9.28406 140.941 9.06006 141.277 9.06006C141.613 9.06006 141.869 9.28406 141.869 9.57206ZM142.245 9.84406C142.245 9.54006 142.501 9.30006 142.837 9.30006C143.173 9.30006 143.413 9.54006 143.413 9.84406C143.413 10.1321 143.173 10.3561 142.837 10.3561C142.501 10.3561 142.245 10.1321 142.245 9.84406ZM143.597 10.5081C143.597 10.2041 143.869 9.94806 144.205 9.94806C144.541 9.94806 144.797 10.2041 144.797 10.5081C144.797 10.8121 144.541 11.0521 144.205 11.0521C143.869 11.0521 143.597 10.8121 143.597 10.5081ZM144.557 11.6841C144.557 11.3801 144.829 11.1401 145.165 11.1401C145.485 11.1401 145.757 11.3801 145.757 11.6841C145.757 11.9881 145.501 12.2281 145.165 12.2281C144.829 12.2281 144.557 11.9881 144.557 11.6841ZM144.421 13.1721C144.421 12.8681 144.693 12.6281 145.029 12.6281C145.365 12.6281 145.621 12.8681 145.621 13.1721C145.621 13.4761 145.365 13.7161 145.029 13.7161C144.693 13.7161 144.421 13.4761 144.421 13.1721ZM137.893 13.2281C137.893 13.5321 137.621 13.7721 137.285 13.7721C136.949 13.7721 136.693 13.5321 136.693 13.2281C136.693 12.9241 136.949 12.6841 137.285 12.6841C137.621 12.6841 137.893 12.9241 137.893 13.2281ZM138.885 14.3321C138.885 14.6361 138.613 14.8761 138.277 14.8761C137.941 14.8761 137.685 14.6361 137.685 14.3321C137.685 14.0281 137.941 13.7881 138.277 13.7881C138.613 13.7881 138.885 14.0281 138.885 14.3321ZM143.509 14.3321C143.509 14.0281 143.765 13.7881 144.101 13.7881C144.437 13.7881 144.677 14.0281 144.677 14.3321C144.677 14.6201 144.437 14.8441 144.101 14.8441C143.765 14.8441 143.509 14.6201 143.509 14.3321ZM142.117 14.9081C142.117 14.6201 142.373 14.3801 142.693 14.3801C143.029 14.3801 143.269 14.6201 143.269 14.9081C143.269 15.1961 143.029 15.4201 142.693 15.4201C142.373 15.4201 142.117 15.1961 142.117 14.9081ZM140.261 14.9721C140.261 15.2601 140.005 15.4841 139.669 15.4841C139.333 15.4841 139.093 15.2601 139.093 14.9721C139.093 14.6681 139.333 14.4281 139.669 14.4281C140.005 14.4281 140.261 14.6681 140.261 14.9721ZM141.765 15.1801C141.765 15.4681 141.509 15.6921 141.189 15.6921C140.853 15.6921 140.613 15.4681 140.613 15.1801C140.613 14.8921 140.853 14.6521 141.189 14.6521C141.509 14.6521 141.765 14.8921 141.765 15.1801ZM152.558 4.65206C152.558 4.94006 152.302 5.18006 151.982 5.18006C151.646 5.18006 151.406 4.94006 151.406 4.65206C151.406 4.36406 151.646 4.14006 151.982 4.14006C152.302 4.14006 152.558 4.36406 152.558 4.65206ZM152.942 4.65206C152.942 4.36406 153.198 4.14006 153.518 4.14006C153.854 4.14006 154.094 4.36406 154.094 4.65206C154.094 4.94006 153.854 5.18006 153.518 5.18006C153.198 5.18006 152.942 4.94006 152.942 4.65206ZM151.086 5.08406C151.086 5.38806 150.83 5.62806 150.494 5.62806C150.158 5.62806 149.918 5.38806 149.918 5.08406C149.918 4.79606 150.158 4.57206 150.494 4.57206C150.83 4.57206 151.086 4.79606 151.086 5.08406ZM154.414 5.11606C154.414 4.82806 154.67 4.60406 155.006 4.60406C155.342 4.60406 155.582 4.82806 155.582 5.11606C155.582 5.42006 155.342 5.66006 155.006 5.66006C154.67 5.66006 154.414 5.42006 154.414 5.11606ZM149.87 5.99606C149.87 6.30006 149.598 6.54006 149.262 6.54006C148.926 6.54006 148.67 6.30006 148.67 5.99606C148.67 5.69206 148.926 5.45206 149.262 5.45206C149.598 5.45206 149.87 5.69206 149.87 5.99606ZM155.63 6.06006C155.63 5.75606 155.902 5.51606 156.238 5.51606C156.574 5.51606 156.83 5.75606 156.83 6.06006C156.83 6.36406 156.574 6.60406 156.238 6.60406C155.902 6.60406 155.63 6.36406 155.63 6.06006ZM148.974 7.18006C148.974 7.46806 148.686 7.72406 148.366 7.72406C148.046 7.72406 147.774 7.48406 147.774 7.18006C147.774 6.87606 148.03 6.63606 148.366 6.63606C148.702 6.63606 148.974 6.87606 148.974 7.18006ZM148.494 8.54006C148.494 8.82806 148.222 9.08406 147.886 9.08406C147.55 9.08406 147.294 8.82806 147.294 8.54006C147.294 8.23606 147.55 7.99606 147.886 7.99606C148.222 7.99606 148.494 8.23606 148.494 8.54006ZM148.334 9.94806C148.334 10.2521 148.062 10.4921 147.726 10.4921C147.39 10.4921 147.134 10.2521 147.134 9.94806C147.134 9.64406 147.39 9.40406 147.726 9.40406C148.062 9.40406 148.334 9.64406 148.334 9.94806ZM148.494 11.3401C148.494 11.6441 148.222 11.8841 147.886 11.8841C147.55 11.8841 147.294 11.6441 147.294 11.3401C147.294 11.0681 147.55 10.8121 147.886 10.8121C148.222 10.8121 148.494 11.0681 148.494 11.3401ZM148.974 12.7001C148.974 12.9881 148.702 13.2281 148.366 13.2281C148.03 13.2281 147.774 12.9881 147.774 12.7001C147.774 12.3961 148.046 12.1561 148.366 12.1561C148.686 12.1561 148.974 12.4121 148.974 12.7001ZM155.63 13.7881C155.63 13.4841 155.902 13.2441 156.238 13.2441C156.574 13.2441 156.83 13.4841 156.83 13.7881C156.83 14.0921 156.574 14.3321 156.238 14.3321C155.902 14.3321 155.63 14.0921 155.63 13.7881ZM149.87 13.8521C149.87 14.1561 149.598 14.3961 149.262 14.3961C148.926 14.3961 148.67 14.1561 148.67 13.8521C148.67 13.5481 148.926 13.3081 149.262 13.3081C149.598 13.3081 149.87 13.5481 149.87 13.8521ZM154.414 14.7161C154.414 14.4121 154.67 14.1881 155.006 14.1881C155.342 14.1881 155.582 14.4121 155.582 14.7161C155.582 15.0041 155.342 15.2281 155.006 15.2281C154.67 15.2281 154.414 15.0041 154.414 14.7161ZM151.086 14.7481C151.086 15.0361 150.83 15.2601 150.494 15.2601C150.158 15.2601 149.918 15.0361 149.918 14.7481C149.918 14.4441 150.158 14.2201 150.494 14.2201C150.83 14.2201 151.086 14.4441 151.086 14.7481ZM152.558 15.1801C152.558 15.4681 152.302 15.6921 151.982 15.6921C151.646 15.6921 151.406 15.4681 151.406 15.1801C151.406 14.8921 151.646 14.6521 151.982 14.6521C152.302 14.6521 152.558 14.8921 152.558 15.1801ZM152.942 15.1801C152.942 14.8921 153.198 14.6521 153.518 14.6521C153.854 14.6521 154.094 14.8921 154.094 15.1801C154.094 15.4681 153.854 15.6921 153.518 15.6921C153.198 15.6921 152.942 15.4681 152.942 15.1801ZM163.73 4.65206C163.73 4.94006 163.474 5.18006 163.154 5.18006C162.818 5.18006 162.578 4.94006 162.578 4.65206C162.578 4.36406 162.818 4.14006 163.154 4.14006C163.474 4.14006 163.73 4.36406 163.73 4.65206ZM164.114 4.65206C164.114 4.36406 164.37 4.14006 164.69 4.14006C165.026 4.14006 165.266 4.36406 165.266 4.65206C165.266 4.94006 165.026 5.18006 164.69 5.18006C164.37 5.18006 164.114 4.94006 164.114 4.65206ZM162.258 5.08406C162.258 5.38806 162.002 5.62806 161.666 5.62806C161.33 5.62806 161.09 5.38806 161.09 5.08406C161.09 4.79606 161.33 4.57206 161.666 4.57206C162.002 4.57206 162.258 4.79606 162.258 5.08406ZM165.586 5.08406C165.586 4.79606 165.842 4.57206 166.178 4.57206C166.514 4.57206 166.754 4.79606 166.754 5.08406C166.754 5.38806 166.514 5.62806 166.178 5.62806C165.842 5.62806 165.586 5.38806 165.586 5.08406ZM161.042 5.99606C161.042 6.30006 160.77 6.54006 160.434 6.54006C160.098 6.54006 159.842 6.30006 159.842 5.99606C159.842 5.69206 160.098 5.45206 160.434 5.45206C160.77 5.45206 161.042 5.69206 161.042 5.99606ZM166.802 5.99606C166.802 5.69206 167.074 5.45206 167.41 5.45206C167.746 5.45206 168.002 5.69206 168.002 5.99606C168.002 6.30006 167.746 6.54006 167.41 6.54006C167.074 6.54006 166.802 6.30006 166.802 5.99606ZM160.146 7.18006C160.146 7.46806 159.858 7.72406 159.538 7.72406C159.218 7.72406 158.946 7.48406 158.946 7.18006C158.946 6.87606 159.202 6.63606 159.538 6.63606C159.874 6.63606 160.146 6.87606 160.146 7.18006ZM167.698 7.18006C167.698 6.87606 167.97 6.63606 168.306 6.63606C168.642 6.63606 168.898 6.87606 168.898 7.18006C168.898 7.48406 168.626 7.72406 168.306 7.72406C167.986 7.72406 167.698 7.48406 167.698 7.18006ZM159.666 8.54006C159.666 8.82806 159.394 9.08406 159.058 9.08406C158.722 9.08406 158.466 8.82806 158.466 8.54006C158.466 8.23606 158.722 7.99606 159.058 7.99606C159.394 7.99606 159.666 8.23606 159.666 8.54006ZM168.178 8.54006C168.178 8.23606 168.45 7.99606 168.786 7.99606C169.122 7.99606 169.378 8.23606 169.378 8.54006C169.378 8.82806 169.122 9.08406 168.786 9.08406C168.45 9.08406 168.178 8.82806 168.178 8.54006ZM159.506 9.94806C159.506 10.2521 159.234 10.4921 158.898 10.4921C158.562 10.4921 158.306 10.2521 158.306 9.94806C158.306 9.64406 158.562 9.40406 158.898 9.40406C159.234 9.40406 159.506 9.64406 159.506 9.94806ZM168.338 9.94806C168.338 9.64406 168.61 9.40406 168.946 9.40406C169.282 9.40406 169.538 9.64406 169.538 9.94806C169.538 10.2521 169.282 10.4921 168.946 10.4921C168.61 10.4921 168.338 10.2521 168.338 9.94806ZM159.666 11.3401C159.666 11.6441 159.394 11.8841 159.058 11.8841C158.722 11.8841 158.466 11.6441 158.466 11.3401C158.466 11.0681 158.722 10.8121 159.058 10.8121C159.394 10.8121 159.666 11.0681 159.666 11.3401ZM168.178 11.3401C168.178 11.0681 168.45 10.8121 168.786 10.8121C169.122 10.8121 169.378 11.0681 169.378 11.3401C169.378 11.6441 169.122 11.8841 168.786 11.8841C168.45 11.8841 168.178 11.6441 168.178 11.3401ZM160.146 12.7001C160.146 12.9881 159.874 13.2281 159.538 13.2281C159.202 13.2281 158.946 12.9881 158.946 12.7001C158.946 12.3961 159.218 12.1561 159.538 12.1561C159.858 12.1561 160.146 12.4121 160.146 12.7001ZM167.698 12.7001C167.698 12.3961 167.986 12.1561 168.306 12.1561C168.626 12.1561 168.898 12.3961 168.898 12.7001C168.898 12.9881 168.642 13.2281 168.306 13.2281C167.97 13.2281 167.698 12.9881 167.698 12.7001ZM161.042 13.8521C161.042 14.1561 160.77 14.3961 160.434 14.3961C160.098 14.3961 159.842 14.1561 159.842 13.8521C159.842 13.5481 160.098 13.3081 160.434 13.3081C160.77 13.3081 161.042 13.5481 161.042 13.8521ZM166.802 13.8521C166.802 13.5481 167.074 13.3081 167.41 13.3081C167.746 13.3081 168.002 13.5481 168.002 13.8521C168.002 14.1561 167.746 14.3961 167.41 14.3961C167.074 14.3961 166.802 14.1561 166.802 13.8521ZM162.258 14.7481C162.258 15.0361 162.002 15.2601 161.666 15.2601C161.33 15.2601 161.09 15.0361 161.09 14.7481C161.09 14.4441 161.33 14.2201 161.666 14.2201C162.002 14.2201 162.258 14.4441 162.258 14.7481ZM165.586 14.7481C165.586 14.4441 165.842 14.2201 166.178 14.2201C166.514 14.2201 166.754 14.4441 166.754 14.7481C166.754 15.0361 166.514 15.2601 166.178 15.2601C165.842 15.2601 165.586 15.0361 165.586 14.7481ZM163.73 15.1801C163.73 15.4681 163.474 15.6921 163.154 15.6921C162.818 15.6921 162.578 15.4681 162.578 15.1801C162.578 14.8921 162.818 14.6521 163.154 14.6521C163.474 14.6521 163.73 14.8921 163.73 15.1801ZM164.114 15.1801C164.114 14.8921 164.37 14.6521 164.69 14.6521C165.026 14.6521 165.266 14.8921 165.266 15.1801C165.266 15.4681 165.026 15.6921 164.69 15.6921C164.37 15.6921 164.114 15.4681 164.114 15.1801ZM171.438 4.78006C171.438 5.08406 171.166 5.30806 170.83 5.30806C170.494 5.30806 170.238 5.08406 170.238 4.78006C170.238 4.49206 170.494 4.26806 170.83 4.26806C171.166 4.26806 171.438 4.49206 171.438 4.78006ZM179.582 4.78006C179.582 4.49206 179.854 4.26806 180.19 4.26806C180.526 4.26806 180.782 4.49206 180.782 4.78006C180.782 5.08406 180.526 5.30806 180.19 5.30806C179.854 5.30806 179.582 5.08406 179.582 4.78006ZM172.03 6.09206C172.03 6.38006 171.758 6.60406 171.422 6.60406C171.086 6.60406 170.83 6.38006 170.83 6.09206C170.83 5.78806 171.086 5.56406 171.422 5.56406C171.758 5.56406 172.03 5.78806 172.03 6.09206ZM178.99 6.09206C178.99 5.78806 179.262 5.56406 179.598 5.56406C179.934 5.56406 180.19 5.78806 180.19 6.09206C180.19 6.38006 179.934 6.60406 179.598 6.60406C179.262 6.60406 178.99 6.38006 178.99 6.09206ZM172.638 7.35606C172.638 7.64406 172.366 7.86806 172.03 7.86806C171.694 7.86806 171.438 7.64406 171.438 7.35606C171.438 7.05206 171.694 6.82806 172.03 6.82806C172.366 6.82806 172.638 7.05206 172.638 7.35606ZM178.43 7.38806C178.43 7.08406 178.702 6.86006 179.038 6.86006C179.374 6.86006 179.63 7.08406 179.63 7.38806C179.63 7.66006 179.374 7.90006 179.038 7.90006C178.702 7.90006 178.43 7.66006 178.43 7.38806ZM173.182 8.63606C173.182 8.94006 172.91 9.16406 172.574 9.16406C172.238 9.16406 171.982 8.94006 171.982 8.63606C171.982 8.36406 172.238 8.12406 172.574 8.12406C172.91 8.12406 173.182 8.36406 173.182 8.63606ZM177.838 8.63606C177.838 8.36406 178.11 8.12406 178.446 8.12406C178.782 8.12406 179.038 8.36406 179.038 8.63606C179.038 8.94006 178.782 9.16406 178.446 9.16406C178.11 9.16406 177.838 8.94006 177.838 8.63606ZM173.758 9.93206C173.758 10.2201 173.486 10.4441 173.15 10.4441C172.814 10.4441 172.558 10.2201 172.558 9.93206C172.558 9.62806 172.814 9.42006 173.15 9.42006C173.486 9.42006 173.758 9.62806 173.758 9.93206ZM177.262 9.93206C177.262 9.62806 177.534 9.42006 177.87 9.42006C178.206 9.42006 178.462 9.62806 178.462 9.93206C178.462 10.2201 178.206 10.4441 177.87 10.4441C177.534 10.4441 177.262 10.2201 177.262 9.93206ZM174.35 11.1961C174.35 11.4841 174.078 11.7081 173.742 11.7081C173.406 11.7081 173.15 11.4841 173.15 11.1961C173.15 10.9081 173.406 10.6681 173.742 10.6681C174.078 10.6681 174.35 10.9081 174.35 11.1961ZM176.67 11.1961C176.67 10.9081 176.942 10.6681 177.278 10.6681C177.614 10.6681 177.87 10.9081 177.87 11.1961C177.87 11.4841 177.614 11.7081 177.278 11.7081C176.942 11.7081 176.67 11.4841 176.67 11.1961ZM174.942 12.4601C174.942 12.7481 174.67 12.9881 174.334 12.9881C173.998 12.9881 173.742 12.7481 173.742 12.4601C173.742 12.1721 173.998 11.9481 174.334 11.9481C174.67 11.9481 174.942 12.1721 174.942 12.4601ZM176.078 12.4601C176.078 12.1721 176.35 11.9481 176.686 11.9481C177.022 11.9481 177.278 12.1721 177.278 12.4601C177.278 12.7481 177.022 12.9881 176.686 12.9881C176.35 12.9881 176.078 12.7481 176.078 12.4601ZM175.326 13.7481C175.326 14.0201 175.086 14.2601 174.798 14.2601C174.51 14.2601 174.286 14.0201 174.286 13.7481C174.286 13.4281 174.526 13.2361 174.798 13.2361C175.086 13.2361 175.326 13.4441 175.326 13.7481ZM176.678 13.7481C176.678 14.0201 176.438 14.2601 176.15 14.2601C175.862 14.2601 175.638 14.0201 175.638 13.7481C175.638 13.4281 175.878 13.2361 176.15 13.2361C176.438 13.2361 176.678 13.4441 176.678 13.7481ZM176.11 14.9881C176.11 15.2761 175.838 15.5001 175.502 15.5001C175.166 15.5001 174.91 15.2761 174.91 14.9881C174.91 14.6841 175.166 14.4601 175.502 14.4601C175.838 14.4601 176.11 14.6841 176.11 14.9881ZM184.257 4.81206C184.257 5.11606 183.985 5.35606 183.649 5.35606C183.313 5.35606 183.057 5.11606 183.057 4.81206C183.057 4.50806 183.313 4.26806 183.649 4.26806C183.985 4.26806 184.257 4.50806 184.257 4.81206ZM185.777 4.79606C185.777 5.08406 185.521 5.30806 185.185 5.30806C184.865 5.30806 184.609 5.08406 184.609 4.79606C184.609 4.50806 184.865 4.26806 185.185 4.26806C185.521 4.26806 185.777 4.50806 185.777 4.79606ZM187.297 4.79606C187.297 5.08406 187.025 5.30806 186.705 5.30806C186.385 5.30806 186.129 5.08406 186.129 4.79606C186.129 4.50806 186.385 4.26806 186.705 4.26806C187.025 4.26806 187.297 4.50806 187.297 4.79606ZM188.801 4.79606C188.801 5.08406 188.529 5.30806 188.225 5.30806C187.889 5.30806 187.649 5.08406 187.649 4.79606C187.649 4.50806 187.889 4.26806 188.225 4.26806C188.529 4.26806 188.801 4.50806 188.801 4.79606ZM190.305 4.79606C190.305 5.08406 190.049 5.30806 189.729 5.30806C189.377 5.30806 189.153 5.08406 189.153 4.79606C189.153 4.50806 189.377 4.26806 189.729 4.26806C190.049 4.26806 190.305 4.50806 190.305 4.79606ZM184.257 6.25206C184.257 6.57206 183.985 6.81206 183.649 6.81206C183.313 6.81206 183.057 6.57206 183.057 6.25206C183.057 5.94806 183.313 5.70806 183.649 5.70806C183.985 5.70806 184.257 5.94806 184.257 6.25206ZM184.257 7.70806C184.257 8.01206 183.985 8.25206 183.649 8.25206C183.313 8.25206 183.057 8.01206 183.057 7.70806C183.057 7.40406 183.313 7.16406 183.649 7.16406C183.985 7.16406 184.257 7.40406 184.257 7.70806ZM184.257 9.16406C184.257 9.46806 183.985 9.70806 183.649 9.70806C183.313 9.70806 183.057 9.46806 183.057 9.16406C183.057 8.84406 183.313 8.60406 183.649 8.60406C183.985 8.60406 184.257 8.84406 184.257 9.16406ZM185.513 9.89206C185.513 10.1801 185.273 10.4041 184.937 10.4041C184.633 10.4041 184.393 10.1801 184.393 9.89206C184.393 9.60406 184.633 9.36406 184.937 9.36406C185.273 9.36406 185.513 9.60406 185.513 9.89206ZM186.969 9.89206C186.969 10.1801 186.729 10.4041 186.409 10.4041C186.089 10.4041 185.865 10.1801 185.865 9.89206C185.865 9.60406 186.089 9.36406 186.409 9.36406C186.729 9.36406 186.969 9.60406 186.969 9.89206ZM188.441 9.89206C188.441 10.1801 188.185 10.4041 187.881 10.4041C187.545 10.4041 187.321 10.1801 187.321 9.89206C187.321 9.60406 187.545 9.36406 187.881 9.36406C188.185 9.36406 188.441 9.60406 188.441 9.89206ZM189.897 9.89206C189.897 10.1801 189.641 10.4041 189.337 10.4041C189.017 10.4041 188.777 10.1801 188.777 9.89206C188.777 9.60406 189.017 9.36406 189.337 9.36406C189.641 9.36406 189.897 9.60406 189.897 9.89206ZM184.257 10.6041C184.257 10.9081 183.985 11.1481 183.649 11.1481C183.313 11.1481 183.057 10.9081 183.057 10.6041C183.057 10.3001 183.313 10.0601 183.649 10.0601C183.985 10.0601 184.257 10.3001 184.257 10.6041ZM184.257 12.0601C184.257 12.3641 183.985 12.6041 183.649 12.6041C183.313 12.6041 183.057 12.3641 183.057 12.0601C183.057 11.7561 183.313 11.5001 183.649 11.5001C183.985 11.5001 184.257 11.7561 184.257 12.0601ZM184.257 13.5001C184.257 13.8041 183.985 14.0441 183.649 14.0441C183.313 14.0441 183.057 13.8041 183.057 13.5001C183.057 13.1961 183.329 12.9561 183.649 12.9561C183.985 12.9561 184.257 13.1961 184.257 13.5001ZM184.257 14.9561C184.257 15.2601 183.985 15.5001 183.649 15.5001C183.313 15.5001 183.057 15.2601 183.057 14.9561C183.057 14.6521 183.313 14.4121 183.649 14.4121C183.985 14.4121 184.257 14.6521 184.257 14.9561ZM185.777 14.9881C185.777 15.2761 185.521 15.5001 185.185 15.5001C184.865 15.5001 184.609 15.2761 184.609 14.9881C184.609 14.7001 184.865 14.4601 185.185 14.4601C185.521 14.4601 185.777 14.7001 185.777 14.9881ZM187.297 14.9881C187.297 15.2761 187.025 15.5001 186.705 15.5001C186.385 15.5001 186.129 15.2761 186.129 14.9881C186.129 14.7001 186.385 14.4601 186.705 14.4601C187.025 14.4601 187.297 14.7001 187.297 14.9881ZM188.785 14.9881C188.785 15.2761 188.513 15.5001 188.209 15.5001C187.873 15.5001 187.633 15.2761 187.633 14.9881C187.633 14.7001 187.873 14.4601 188.209 14.4601C188.513 14.4601 188.785 14.7001 188.785 14.9881ZM190.289 14.9881C190.289 15.2761 190.033 15.5001 189.713 15.5001C189.361 15.5001 189.137 15.2761 189.137 14.9881C189.137 14.7001 189.329 14.4601 189.713 14.4601C190.033 14.4601 190.289 14.7001 190.289 14.9881ZM193.648 4.81206C193.648 5.11606 193.376 5.35606 193.04 5.35606C192.704 5.35606 192.448 5.11606 192.448 4.81206C192.448 4.50806 192.704 4.26806 193.04 4.26806C193.376 4.26806 193.648 4.50806 193.648 4.81206ZM195.136 4.78006C195.136 5.06806 194.88 5.30806 194.544 5.30806C194.224 5.30806 193.984 5.06806 193.984 4.78006C193.984 4.49206 194.224 4.26806 194.544 4.26806C194.88 4.26806 195.136 4.49206 195.136 4.78006ZM196.624 4.78006C196.624 5.06806 196.368 5.30806 196.032 5.30806C195.712 5.30806 195.472 5.06806 195.472 4.78006C195.472 4.49206 195.712 4.26806 196.032 4.26806C196.368 4.26806 196.624 4.49206 196.624 4.78006ZM196.944 4.82806C196.944 4.54006 197.2 4.31606 197.52 4.31606C197.856 4.31606 198.096 4.54006 198.096 4.82806C198.096 5.11606 197.856 5.35606 197.52 5.35606C197.2 5.35606 196.944 5.11606 196.944 4.82806ZM198.368 5.26806C198.368 4.98006 198.624 4.75606 198.96 4.75606C199.296 4.75606 199.536 4.98006 199.536 5.26806C199.536 5.57206 199.296 5.79606 198.96 5.79606C198.624 5.79606 198.368 5.57206 198.368 5.26806ZM193.648 6.25206C193.648 6.57206 193.376 6.81206 193.04 6.81206C192.704 6.81206 192.448 6.57206 192.448 6.25206C192.448 5.94806 192.704 5.70806 193.04 5.70806C193.376 5.70806 193.648 5.94806 193.648 6.25206ZM199.416 6.36406C199.416 6.04406 199.688 5.79606 200.024 5.79606C200.36 5.79606 200.616 6.04406 200.616 6.36406C200.616 6.67606 200.368 6.92406 200.024 6.92406C199.688 6.92406 199.416 6.67606 199.416 6.36406ZM193.648 7.70806C193.648 8.01206 193.376 8.25206 193.04 8.25206C192.704 8.25206 192.448 8.01206 192.448 7.70806C192.448 7.40406 192.704 7.16406 193.04 7.16406C193.376 7.16406 193.648 7.40406 193.648 7.70806ZM199.72 7.85206C199.72 7.54006 199.992 7.29206 200.328 7.29206C200.664 7.29206 200.92 7.54006 200.92 7.85206C200.92 8.18006 200.664 8.41206 200.328 8.41206C199.992 8.41206 199.72 8.18006 199.72 7.85206ZM193.648 9.16406C193.648 9.46806 193.376 9.70806 193.04 9.70806C192.704 9.70806 192.448 9.46806 192.448 9.16406C192.448 8.84406 192.704 8.60406 193.04 8.60406C193.376 8.60406 193.648 8.84406 193.648 9.16406ZM199.28 9.30006C199.28 8.98006 199.552 8.73206 199.888 8.73206C200.224 8.73206 200.48 8.98006 200.48 9.30006C200.48 9.62806 200.224 9.86006 199.888 9.86006C199.552 9.86006 199.28 9.62806 199.28 9.30006ZM198.176 10.3001C198.176 9.98806 198.432 9.75606 198.768 9.75606C199.104 9.75606 199.344 9.98806 199.344 10.3001C199.344 10.6041 199.104 10.8521 198.768 10.8521C198.432 10.8521 198.176 10.6041 198.176 10.3001ZM193.648 10.6041C193.648 10.9081 193.376 11.1481 193.04 11.1481C192.704 11.1481 192.448 10.9081 192.448 10.6041C192.448 10.3001 192.704 10.0601 193.04 10.0601C193.376 10.0601 193.648 10.3001 193.648 10.6041ZM195.152 10.6201C195.152 10.9081 194.896 11.1321 194.56 11.1321C194.24 11.1321 194 10.9081 194 10.6201C194 10.3321 194.24 10.0921 194.56 10.0921C194.896 10.0921 195.152 10.3321 195.152 10.6201ZM196.624 10.6201C196.624 10.9081 196.368 11.1321 196.032 11.1321C195.712 11.1321 195.472 10.9081 195.472 10.6201C195.472 10.3321 195.712 10.0921 196.032 10.0921C196.368 10.0921 196.624 10.3321 196.624 10.6201ZM197.92 10.5721C197.92 10.8201 197.704 11.0361 197.44 11.0361C197.176 11.0361 196.968 10.8201 196.968 10.5721C196.968 10.2761 197.192 10.1001 197.44 10.1001C197.704 10.1001 197.92 10.2921 197.92 10.5721ZM198.624 11.6201C198.624 11.8681 198.408 12.0841 198.144 12.0841C197.88 12.0841 197.672 11.8681 197.672 11.6201C197.672 11.3241 197.896 11.1481 198.144 11.1481C198.408 11.1481 198.624 11.3401 198.624 11.6201ZM193.648 12.0601C193.648 12.3641 193.376 12.6041 193.04 12.6041C192.704 12.6041 192.448 12.3641 192.448 12.0601C192.448 11.7561 192.704 11.5001 193.04 11.5001C193.376 11.5001 193.648 11.7561 193.648 12.0601ZM199.648 12.6521C199.648 12.9401 199.376 13.1801 199.04 13.1801C198.704 13.1801 198.448 12.9401 198.448 12.6521C198.448 12.3641 198.704 12.1401 199.04 12.1401C199.376 12.1401 199.648 12.3641 199.648 12.6521ZM193.648 13.5001C193.648 13.8041 193.376 14.0441 193.04 14.0441C192.704 14.0441 192.448 13.8041 192.448 13.5001C192.448 13.1961 192.72 12.9561 193.04 12.9561C193.376 12.9561 193.648 13.1961 193.648 13.5001ZM200.496 13.8041C200.496 14.1081 200.224 14.3321 199.888 14.3321C199.552 14.3321 199.296 14.1081 199.296 13.8041C199.296 13.5161 199.552 13.2921 199.888 13.2921C200.224 13.2921 200.496 13.5161 200.496 13.8041ZM193.648 14.9561C193.648 15.2601 193.376 15.5001 193.04 15.5001C192.704 15.5001 192.448 15.2601 192.448 14.9561C192.448 14.6521 192.704 14.4121 193.04 14.4121C193.376 14.4121 193.648 14.6521 193.648 14.9561ZM201.328 14.9881C201.328 15.2761 201.056 15.5161 200.72 15.5161C200.384 15.5161 200.128 15.2761 200.128 14.9881C200.128 14.7001 200.384 14.4761 200.72 14.4761C201.056 14.4761 201.328 14.7001 201.328 14.9881ZM203.206 4.78006C203.206 5.08406 202.934 5.30806 202.598 5.30806C202.262 5.30806 202.006 5.08406 202.006 4.78006C202.006 4.50806 202.262 4.26806 202.598 4.26806C202.934 4.26806 203.206 4.50806 203.206 4.78006ZM210.438 4.79606C210.438 4.51606 210.71 4.26806 211.038 4.26806C211.366 4.26806 211.614 4.51606 211.614 4.79606C211.614 5.11606 211.366 5.34806 211.038 5.34806C210.71 5.34806 210.438 5.11606 210.438 4.79606ZM204.038 5.93206C204.038 6.22006 203.766 6.46006 203.43 6.46006C203.094 6.46006 202.838 6.22006 202.838 5.93206C202.838 5.64406 203.094 5.42006 203.43 5.42006C203.766 5.42006 204.038 5.64406 204.038 5.93206ZM209.566 5.98806C209.566 5.69206 209.83 5.46006 210.166 5.46006C210.486 5.46006 210.742 5.69206 210.742 5.98806C210.742 6.29206 210.486 6.54006 210.166 6.54006C209.83 6.54006 209.566 6.29206 209.566 5.98806ZM204.87 7.10006C204.87 7.38806 204.598 7.61206 204.262 7.61206C203.926 7.61206 203.67 7.38806 203.67 7.10006C203.67 6.81206 203.926 6.57206 204.262 6.57206C204.598 6.57206 204.87 6.81206 204.87 7.10006ZM208.694 7.18006C208.694 6.88406 208.958 6.62806 209.286 6.62806C209.614 6.62806 209.862 6.88406 209.862 7.18006C209.862 7.48406 209.614 7.71606 209.286 7.71606C208.958 7.71606 208.694 7.48406 208.694 7.18006ZM205.734 8.25206C205.734 8.54006 205.462 8.76406 205.126 8.76406C204.79 8.76406 204.534 8.54006 204.534 8.25206C204.534 7.96406 204.79 7.72406 205.126 7.72406C205.462 7.72406 205.734 7.96406 205.734 8.25206ZM207.798 8.36406C207.798 8.06806 208.07 7.81206 208.398 7.81206C208.718 7.81206 208.974 8.06806 208.974 8.36406C208.974 8.66006 208.718 8.90006 208.398 8.90006C208.07 8.90006 207.798 8.66006 207.798 8.36406ZM206.406 9.40406C206.406 9.67606 206.166 9.91606 205.878 9.91606C205.59 9.91606 205.366 9.67606 205.366 9.40406C205.366 9.08406 205.606 8.89206 205.878 8.89206C206.166 8.89206 206.406 9.10006 206.406 9.40406ZM207.966 9.40406C207.966 9.67606 207.726 9.91606 207.438 9.91606C207.15 9.91606 206.926 9.67606 206.926 9.40406C206.926 9.08406 207.166 8.89206 207.438 8.89206C207.726 8.89206 207.966 9.10006 207.966 9.40406ZM207.294 10.6041C207.294 10.9081 207.022 11.1481 206.686 11.1481C206.35 11.1481 206.094 10.9081 206.094 10.6041C206.094 10.3001 206.35 10.0601 206.686 10.0601C207.022 10.0601 207.294 10.3001 207.294 10.6041ZM207.294 12.0601C207.294 12.3641 207.022 12.6041 206.686 12.6041C206.35 12.6041 206.094 12.3641 206.094 12.0601C206.094 11.7561 206.35 11.5001 206.686 11.5001C207.022 11.5001 207.294 11.7561 207.294 12.0601ZM207.294 13.5001C207.294 13.8041 207.022 14.0441 206.686 14.0441C206.35 14.0441 206.094 13.8041 206.094 13.5001C206.094 13.1961 206.366 12.9561 206.686 12.9561C207.022 12.9561 207.294 13.1961 207.294 13.5001ZM207.294 14.9561C207.294 15.2601 207.022 15.5001 206.686 15.5001C206.35 15.5001 206.094 15.2601 206.094 14.9561C206.094 14.6521 206.35 14.4121 206.686 14.4121C207.022 14.4121 207.294 14.6521 207.294 14.9561Z" fill="#FAFAFA"/>
</svg>
